<svg width="1440" height="101" viewBox="0 0 1440 101" fill="none" xmlns="http://www.w3.org/2000/svg">
<g filter="url(#filter0_d_171_2)">
<path d="M580.3 67.125V75H556.081V67.125H580.3ZM559.55 29.5V75H549.363V29.5H559.55ZM577.175 47.8125V55.4375H556.081V47.8125H577.175ZM580.331 29.5V37.4062H556.081V29.5H580.331ZM625.793 64.9062L635.918 29.5H647.261L631.668 75H624.261L625.793 64.9062ZM616.574 29.5L626.668 64.9062L628.261 75H620.761L605.261 29.5H616.574ZM705.66 67.125V75H681.441V67.125H705.66ZM684.91 29.5V75H674.723V29.5H684.91ZM702.535 47.8125V55.4375H681.441V47.8125H702.535ZM705.691 29.5V37.4062H681.441V29.5H705.691ZM771.871 29.5V75H761.715L744.528 45.5938V75H734.34V29.5H744.528L761.746 58.9062V29.5H771.871ZM823.333 29.5V75H813.176V29.5H823.333ZM837.176 29.5V37.4062H799.614V29.5H837.176ZM888.981 63C888.981 62.2292 888.867 61.5417 888.638 60.9375C888.408 60.3125 887.992 59.7396 887.388 59.2188C886.783 58.6979 885.929 58.1771 884.825 57.6562C883.721 57.1146 882.273 56.5625 880.481 56C878.44 55.3333 876.492 54.5833 874.638 53.75C872.804 52.8958 871.169 51.9062 869.731 50.7812C868.294 49.6562 867.158 48.3438 866.325 46.8438C865.513 45.3438 865.106 43.5938 865.106 41.5938C865.106 39.6562 865.533 37.9062 866.388 36.3438C867.242 34.7812 868.44 33.4479 869.981 32.3438C871.523 31.2188 873.335 30.3646 875.419 29.7812C877.502 29.1771 879.794 28.875 882.294 28.875C885.627 28.875 888.554 29.4688 891.075 30.6562C893.617 31.8229 895.596 33.4688 897.013 35.5938C898.429 37.6979 899.138 40.1458 899.138 42.9375H889.013C889.013 41.7083 888.752 40.625 888.231 39.6875C887.731 38.7292 886.96 37.9792 885.919 37.4375C884.898 36.8958 883.617 36.625 882.075 36.625C880.575 36.625 879.315 36.8542 878.294 37.3125C877.294 37.75 876.533 38.3542 876.013 39.125C875.513 39.8958 875.263 40.7396 875.263 41.6562C875.263 42.3854 875.45 43.0521 875.825 43.6562C876.221 44.2396 876.783 44.7917 877.513 45.3125C878.263 45.8125 879.179 46.2917 880.263 46.75C881.346 47.2083 882.585 47.6458 883.981 48.0625C886.419 48.8333 888.575 49.6875 890.45 50.625C892.346 51.5625 893.94 52.625 895.231 53.8125C896.523 55 897.492 56.3438 898.138 57.8438C898.804 59.3438 899.138 61.0417 899.138 62.9375C899.138 64.9583 898.742 66.75 897.95 68.3125C897.179 69.875 896.054 71.2083 894.575 72.3125C893.117 73.3958 891.367 74.2188 889.325 74.7812C887.283 75.3438 885.002 75.625 882.481 75.625C880.19 75.625 877.929 75.3333 875.7 74.75C873.471 74.1458 871.45 73.2292 869.638 72C867.846 70.7708 866.408 69.2083 865.325 67.3125C864.263 65.3958 863.731 63.125 863.731 60.5H873.919C873.919 61.875 874.117 63.0417 874.513 64C874.908 64.9375 875.471 65.6979 876.2 66.2812C876.95 66.8646 877.856 67.2812 878.919 67.5312C879.981 67.7812 881.169 67.9062 882.481 67.9062C884.002 67.9062 885.231 67.6979 886.169 67.2812C887.127 66.8438 887.835 66.25 888.294 65.5C888.752 64.75 888.981 63.9167 888.981 63Z" fill="white"/>
<path d="M580.3 67.125H581.3V66.125H580.3V67.125ZM580.3 75V76H581.3V75H580.3ZM556.081 75H555.081V76H556.081V75ZM556.081 67.125V66.125H555.081V67.125H556.081ZM559.55 29.5H560.55V28.5H559.55V29.5ZM559.55 75V76H560.55V75H559.55ZM549.363 75H548.363V76H549.363V75ZM549.363 29.5V28.5H548.363V29.5H549.363ZM577.175 47.8125H578.175V46.8125H577.175V47.8125ZM577.175 55.4375V56.4375H578.175V55.4375H577.175ZM556.081 55.4375H555.081V56.4375H556.081V55.4375ZM556.081 47.8125V46.8125H555.081V47.8125H556.081ZM580.331 29.5H581.331V28.5H580.331V29.5ZM580.331 37.4062V38.4062H581.331V37.4062H580.331ZM556.081 37.4062H555.081V38.4062H556.081V37.4062ZM556.081 29.5V28.5H555.081V29.5H556.081ZM579.3 67.125V75H581.3V67.125H579.3ZM580.3 74H556.081V76H580.3V74ZM557.081 75V67.125H555.081V75H557.081ZM556.081 68.125H580.3V66.125H556.081V68.125ZM558.55 29.5V75H560.55V29.5H558.55ZM559.55 74H549.363V76H559.55V74ZM550.363 75V29.5H548.363V75H550.363ZM549.363 30.5H559.55V28.5H549.363V30.5ZM576.175 47.8125V55.4375H578.175V47.8125H576.175ZM577.175 54.4375H556.081V56.4375H577.175V54.4375ZM557.081 55.4375V47.8125H555.081V55.4375H557.081ZM556.081 48.8125H577.175V46.8125H556.081V48.8125ZM579.331 29.5V37.4062H581.331V29.5H579.331ZM580.331 36.4062H556.081V38.4062H580.331V36.4062ZM557.081 37.4062V29.5H555.081V37.4062H557.081ZM556.081 30.5H580.331V28.5H556.081V30.5ZM625.793 64.9062L624.831 64.6313L624.813 64.6929L624.804 64.7563L625.793 64.9062ZM635.918 29.5V28.5H635.163L634.956 29.2251L635.918 29.5ZM647.261 29.5L648.207 29.8242L648.661 28.5H647.261V29.5ZM631.668 75V76H632.382L632.613 75.3242L631.668 75ZM624.261 75L623.273 74.85L623.098 76H624.261V75ZM616.574 29.5L617.535 29.2258L617.329 28.5H616.574V29.5ZM626.668 64.9062L627.655 64.7503L627.646 64.6904L627.629 64.6321L626.668 64.9062ZM628.261 75V76H629.432L629.249 74.844L628.261 75ZM620.761 75L619.815 75.3225L620.045 76H620.761V75ZM605.261 29.5V28.5H603.864L604.315 29.8225L605.261 29.5ZM626.754 65.1812L636.879 29.7749L634.956 29.2251L624.831 64.6313L626.754 65.1812ZM635.918 30.5H647.261V28.5H635.918V30.5ZM646.315 29.1758L630.722 74.6758L632.613 75.3242L648.207 29.8242L646.315 29.1758ZM631.668 74H624.261V76H631.668V74ZM625.25 75.15L626.781 65.0562L624.804 64.7563L623.273 74.85L625.25 75.15ZM615.612 29.7742L625.706 65.1804L627.629 64.6321L617.535 29.2258L615.612 29.7742ZM625.68 65.0622L627.273 75.156L629.249 74.844L627.655 64.7503L625.68 65.0622ZM628.261 74H620.761V76H628.261V74ZM621.708 74.6775L606.208 29.1775L604.315 29.8225L619.815 75.3225L621.708 74.6775ZM605.261 30.5H616.574V28.5H605.261V30.5ZM705.66 67.125H706.66V66.125H705.66V67.125ZM705.66 75V76H706.66V75H705.66ZM681.441 75H680.441V76H681.441V75ZM681.441 67.125V66.125H680.441V67.125H681.441ZM684.91 29.5H685.91V28.5H684.91V29.5ZM684.91 75V76H685.91V75H684.91ZM674.723 75H673.723V76H674.723V75ZM674.723 29.5V28.5H673.723V29.5H674.723ZM702.535 47.8125H703.535V46.8125H702.535V47.8125ZM702.535 55.4375V56.4375H703.535V55.4375H702.535ZM681.441 55.4375H680.441V56.4375H681.441V55.4375ZM681.441 47.8125V46.8125H680.441V47.8125H681.441ZM705.691 29.5H706.691V28.5H705.691V29.5ZM705.691 37.4062V38.4062H706.691V37.4062H705.691ZM681.441 37.4062H680.441V38.4062H681.441V37.4062ZM681.441 29.5V28.5H680.441V29.5H681.441ZM704.66 67.125V75H706.66V67.125H704.66ZM705.66 74H681.441V76H705.66V74ZM682.441 75V67.125H680.441V75H682.441ZM681.441 68.125H705.66V66.125H681.441V68.125ZM683.91 29.5V75H685.91V29.5H683.91ZM684.91 74H674.723V76H684.91V74ZM675.723 75V29.5H673.723V75H675.723ZM674.723 30.5H684.91V28.5H674.723V30.5ZM701.535 47.8125V55.4375H703.535V47.8125H701.535ZM702.535 54.4375H681.441V56.4375H702.535V54.4375ZM682.441 55.4375V47.8125H680.441V55.4375H682.441ZM681.441 48.8125H702.535V46.8125H681.441V48.8125ZM704.691 29.5V37.4062H706.691V29.5H704.691ZM705.691 36.4062H681.441V38.4062H705.691V36.4062ZM682.441 37.4062V29.5H680.441V37.4062H682.441ZM681.441 30.5H705.691V28.5H681.441V30.5ZM771.871 29.5H772.871V28.5H771.871V29.5ZM771.871 75V76H772.871V75H771.871ZM761.715 75L760.852 75.5046L761.141 76H761.715V75ZM744.528 45.5938L745.391 45.0891L743.528 41.9011V45.5938H744.528ZM744.528 75V76H745.528V75H744.528ZM734.34 75H733.34V76H734.34V75ZM734.34 29.5V28.5H733.34V29.5H734.34ZM744.528 29.5L745.39 28.9947L745.101 28.5H744.528V29.5ZM761.746 58.9062L760.883 59.4115L762.746 62.5931V58.9062H761.746ZM761.746 29.5V28.5H760.746V29.5H761.746ZM770.871 29.5V75H772.871V29.5H770.871ZM771.871 74H761.715V76H771.871V74ZM762.578 74.4954L745.391 45.0891L743.664 46.0984L760.852 75.5046L762.578 74.4954ZM743.528 45.5938V75H745.528V45.5938H743.528ZM744.528 74H734.34V76H744.528V74ZM735.34 75V29.5H733.34V75H735.34ZM734.34 30.5H744.528V28.5H734.34V30.5ZM743.665 30.0053L760.883 59.4115L762.609 58.401L745.39 28.9947L743.665 30.0053ZM762.746 58.9062V29.5H760.746V58.9062H762.746ZM761.746 30.5H771.871V28.5H761.746V30.5ZM823.333 29.5H824.333V28.5H823.333V29.5ZM823.333 75V76H824.333V75H823.333ZM813.176 75H812.176V76H813.176V75ZM813.176 29.5V28.5H812.176V29.5H813.176ZM837.176 29.5H838.176V28.5H837.176V29.5ZM837.176 37.4062V38.4062H838.176V37.4062H837.176ZM799.614 37.4062H798.614V38.4062H799.614V37.4062ZM799.614 29.5V28.5H798.614V29.5H799.614ZM822.333 29.5V75H824.333V29.5H822.333ZM823.333 74H813.176V76H823.333V74ZM814.176 75V29.5H812.176V75H814.176ZM813.176 30.5H823.333V28.5H813.176V30.5ZM836.176 29.5V37.4062H838.176V29.5H836.176ZM837.176 36.4062H799.614V38.4062H837.176V36.4062ZM800.614 37.4062V29.5H798.614V37.4062H800.614ZM799.614 30.5H837.176V28.5H799.614V30.5ZM888.638 60.9375L887.699 61.2818L887.703 61.2922L888.638 60.9375ZM887.388 59.2188L888.04 58.4613L887.388 59.2188ZM884.825 57.6562L884.385 58.554L884.391 58.5574L884.398 58.5607L884.825 57.6562ZM880.481 56L880.171 56.9507L880.182 56.9541L880.481 56ZM874.638 53.75L874.215 54.6565L874.228 54.6621L874.638 53.75ZM866.325 46.8438L865.446 47.3201L865.451 47.3294L866.325 46.8438ZM866.388 36.3438L865.51 35.8641L866.388 36.3438ZM869.981 32.3438L870.564 33.1568L870.571 33.1515L869.981 32.3438ZM875.419 29.7812L875.688 30.7443L875.697 30.7417L875.419 29.7812ZM891.075 30.6562L890.649 31.5609L890.658 31.5651L891.075 30.6562ZM897.013 35.5938L896.18 36.1485L896.183 36.1522L897.013 35.5938ZM899.138 42.9375V43.9375H900.138V42.9375H899.138ZM889.013 42.9375H888.013V43.9375H889.013V42.9375ZM888.231 39.6875L887.345 40.1501L887.351 40.1617L887.357 40.1731L888.231 39.6875ZM885.919 37.4375L885.45 38.3209L885.457 38.3247L885.919 37.4375ZM878.294 37.3125L878.695 38.2287L878.703 38.2248L878.294 37.3125ZM876.013 39.125L875.184 38.5651L875.179 38.5729L875.174 38.5808L876.013 39.125ZM875.825 43.6562L874.975 44.1836L874.986 44.2009L874.998 44.2178L875.825 43.6562ZM877.513 45.3125L876.931 46.1262L876.944 46.1356L876.958 46.1446L877.513 45.3125ZM883.981 48.0625L884.283 47.109L884.275 47.1066L884.267 47.1043L883.981 48.0625ZM890.45 50.625L890.003 51.5194L890.007 51.5214L890.45 50.625ZM898.138 57.8438L897.219 58.2392L897.224 58.2499L898.138 57.8438ZM897.95 68.3125L897.058 67.8605L897.053 67.8701L897.95 68.3125ZM894.575 72.3125L895.171 73.1152L895.173 73.1139L894.575 72.3125ZM875.7 74.75L875.438 75.7152L875.447 75.7174L875.7 74.75ZM869.638 72L869.072 72.8246L869.076 72.8276L869.638 72ZM865.325 67.3125L864.45 67.7974L864.457 67.8086L865.325 67.3125ZM863.731 60.5V59.5H862.731V60.5H863.731ZM873.919 60.5H874.919V59.5H873.919V60.5ZM874.513 64L873.588 64.3818L873.591 64.389L874.513 64ZM876.2 66.2812L875.575 67.0622L875.586 67.0706L876.2 66.2812ZM886.169 67.2812L886.575 68.1951L886.584 68.1909L886.169 67.2812ZM889.981 63C889.981 62.1308 889.852 61.3199 889.573 60.5828L887.703 61.2922C887.881 61.7635 887.981 62.3275 887.981 63H889.981ZM889.576 60.5932C889.278 59.7795 888.748 59.0713 888.04 58.4613L886.735 59.9762C887.235 60.4079 887.539 60.8455 887.699 61.2818L889.576 60.5932ZM888.04 58.4613C887.342 57.8591 886.399 57.2931 885.252 56.7518L884.398 58.5607C885.459 59.0611 886.225 59.5368 886.735 59.9762L888.04 58.4613ZM885.265 56.7585C884.099 56.1861 882.598 55.6166 880.781 55.0459L880.182 56.9541C881.947 57.5084 883.343 58.043 884.385 58.554L885.265 56.7585ZM880.792 55.0494C878.782 54.3932 876.867 53.6558 875.047 52.8379L874.228 54.6621C876.116 55.5108 878.097 56.2735 880.171 56.9506L880.792 55.0494ZM875.06 52.8436C873.288 52.0181 871.719 51.0671 870.348 49.9937L869.115 51.5688C870.618 52.7454 872.32 53.7736 874.215 54.6564L875.06 52.8436ZM870.348 49.9937C869.009 48.9458 867.964 47.7339 867.199 46.3581L865.451 47.3294C866.353 48.9536 867.579 50.3667 869.115 51.5688L870.348 49.9937ZM867.204 46.3675C866.484 45.0371 866.106 43.4562 866.106 41.5938H864.106C864.106 43.7313 864.541 45.6504 865.446 47.32L867.204 46.3675ZM866.106 41.5938C866.106 39.8087 866.498 38.2261 867.265 36.8234L865.51 35.8641C864.569 37.5864 864.106 39.5038 864.106 41.5938H866.106ZM867.265 36.8234C868.042 35.4013 869.136 34.1792 870.564 33.1567L869.399 31.5308C867.743 32.7166 866.441 34.1612 865.51 35.8641L867.265 36.8234ZM870.571 33.1515C872.004 32.1057 873.705 31.2996 875.688 30.7442L875.149 28.8183C872.966 29.4296 871.042 30.3318 869.392 31.536L870.571 33.1515ZM875.697 30.7417C877.678 30.1674 879.874 29.875 882.294 29.875V27.875C879.714 27.875 877.327 28.1868 875.14 28.8208L875.697 30.7417ZM882.294 29.875C885.508 29.875 888.285 30.4473 890.649 31.5609L891.501 29.7516C888.823 28.4902 885.746 27.875 882.294 27.875V29.875ZM890.658 31.5651C893.048 32.662 894.876 34.1921 896.18 36.1485L897.845 35.039C896.315 32.7454 894.186 30.9838 891.492 29.7474L890.658 31.5651ZM896.183 36.1522C897.477 38.0749 898.138 40.324 898.138 42.9375H900.138C900.138 39.9677 899.381 37.321 897.842 35.0353L896.183 36.1522ZM899.138 41.9375H889.013V43.9375H899.138V41.9375ZM890.013 42.9375C890.013 41.5635 889.72 40.3084 889.105 39.2019L887.357 40.1731C887.784 40.9416 888.013 41.8532 888.013 42.9375H890.013ZM889.118 39.2249C888.515 38.069 887.587 37.178 886.38 36.5503L885.457 38.3247C886.334 38.7803 886.948 39.3893 887.345 40.1501L889.118 39.2249ZM886.387 36.5542C885.182 35.9146 883.728 35.625 882.075 35.625V37.625C883.506 37.625 884.614 37.8771 885.45 38.3208L886.387 36.5542ZM882.075 35.625C880.479 35.625 879.07 35.8679 877.884 36.4002L878.703 38.2248C879.559 37.8404 880.671 37.625 882.075 37.625V35.625ZM877.893 36.3963C876.75 36.8964 875.828 37.6119 875.184 38.5651L876.841 39.6849C877.239 39.0964 877.837 38.6036 878.695 38.2287L877.893 36.3963ZM875.174 38.5808C874.569 39.5133 874.263 40.546 874.263 41.6562H876.263C876.263 40.9332 876.456 40.2784 876.851 39.6692L875.174 38.5808ZM874.263 41.6562C874.263 42.5668 874.499 43.4169 874.975 44.1836L876.675 43.1289C876.401 42.6873 876.263 42.204 876.263 41.6562H874.263ZM874.998 44.2178C875.475 44.9216 876.131 45.5544 876.931 46.1262L878.094 44.4988C877.436 44.0289 876.967 43.5576 876.652 43.0947L874.998 44.2178ZM876.958 46.1446C877.773 46.6879 878.748 47.1952 879.873 47.671L880.652 45.829C879.61 45.3882 878.752 44.9371 878.067 44.4804L876.958 46.1446ZM879.873 47.671C880.997 48.1465 882.272 48.5959 883.695 49.0207L884.267 47.1043C882.899 46.6958 881.695 46.2702 880.652 45.829L879.873 47.671ZM883.68 49.016C886.078 49.7743 888.184 50.6098 890.003 51.5194L890.897 49.7306C888.966 48.7652 886.76 47.8924 884.283 47.109L883.68 49.016ZM890.007 51.5214C891.834 52.4252 893.345 53.437 894.554 54.5487L895.908 53.0763C894.534 51.813 892.857 50.6998 890.893 49.7286L890.007 51.5214ZM894.554 54.5487C895.75 55.6481 896.633 56.8779 897.219 58.2392L899.056 57.4483C898.35 55.8096 897.296 54.3519 895.908 53.0763L894.554 54.5487ZM897.224 58.2499C897.825 59.6037 898.138 61.16 898.138 62.9375H900.138C900.138 60.9233 899.783 59.0838 899.051 57.4376L897.224 58.2499ZM898.138 62.9375C898.138 64.8255 897.768 66.4582 897.058 67.8605L898.842 68.7645C899.715 67.0418 900.138 65.0912 900.138 62.9375H898.138ZM897.053 67.8701C896.356 69.2826 895.337 70.4956 893.977 71.5111L895.173 73.1139C896.771 71.921 898.002 70.4674 898.847 68.7549L897.053 67.8701ZM893.979 71.5098C892.635 72.5082 891.001 73.2822 889.059 73.8172L889.591 75.7453C891.732 75.1553 893.599 74.2835 895.171 73.1152L893.979 71.5098ZM889.059 73.8172C887.119 74.3518 884.929 74.625 882.481 74.625V76.625C885.075 76.625 887.448 76.3357 889.591 75.7453L889.059 73.8172ZM882.481 74.625C880.275 74.625 878.1 74.3444 875.953 73.7826L875.447 75.7174C877.758 76.3223 880.104 76.625 882.481 76.625V74.625ZM875.962 73.7848C873.833 73.208 871.915 72.3361 870.199 71.1724L869.076 72.8276C870.985 74.1222 873.108 75.0837 875.438 75.7152L875.962 73.7848ZM870.203 71.1754C868.537 70.032 867.202 68.582 866.193 66.8164L864.457 67.8086C865.615 69.8347 867.155 71.5097 869.072 72.8246L870.203 71.1754ZM866.2 66.8277C865.234 65.0861 864.731 62.9889 864.731 60.5H862.731C862.731 63.2611 863.291 65.7055 864.45 67.7973L866.2 66.8277ZM863.731 61.5H873.919V59.5H863.731V61.5ZM872.919 60.5C872.919 61.9655 873.129 63.2699 873.588 64.3818L875.437 63.6182C875.104 62.8135 874.919 61.7845 874.919 60.5H872.919ZM873.591 64.389C874.046 65.4656 874.705 66.3657 875.575 67.0621L876.825 65.5004C876.237 65.0301 875.771 64.4094 875.434 63.611L873.591 64.389ZM875.586 67.0706C876.465 67.7545 877.508 68.2266 878.69 68.5047L879.148 66.5578C878.205 66.3359 877.435 65.9747 876.814 65.4919L875.586 67.0706ZM878.69 68.5047C879.841 68.7755 881.107 68.9062 882.481 68.9062V66.9062C881.231 66.9062 880.122 66.787 879.148 66.5578L878.69 68.5047ZM882.481 68.9062C884.08 68.9062 885.463 68.6891 886.575 68.1951L885.763 66.3674C884.999 66.7067 883.924 66.9062 882.481 66.9062V68.9062ZM886.584 68.1909C887.687 67.6873 888.566 66.973 889.147 66.0215L887.44 64.9785C887.105 65.527 886.567 66.0002 885.753 66.3716L886.584 68.1909ZM889.147 66.0215C889.706 65.1075 889.981 64.0924 889.981 63H887.981C887.981 63.7409 887.799 64.3925 887.44 64.9785L889.147 66.0215Z" fill="#FDC32D"/>
</g>
<g filter="url(#filter1_d_171_2)">
<path d="M428 16H6L17.326 22.5H417L390.247 75H263.563L252.656 83H394.022L428 16Z" fill="#D9D9D9"/>
<path d="M428 16H6L17.326 22.5H417L390.247 75H263.563L252.656 83H394.022L428 16Z" stroke="#08E8E1"/>
</g>
<g filter="url(#filter2_d_171_2)">
<path d="M1023 16H1445L1433.67 22.5H1034.5L1060.75 75H1187.44L1198.34 83H1056.98L1023 16Z" fill="#D9D9D9"/>
<path d="M1023 16H1445L1433.67 22.5H1034.5L1060.75 75H1187.44L1198.34 83H1056.98L1023 16Z" stroke="#00FFFF"/>
</g>
<g filter="url(#filter3_d_171_2)">
<path d="M428 82.5L461.5 17H469.5L436.5 82.5H428Z" fill="white"/>
<path d="M451 82.5L482 17H490.5L459 82.5H451Z" fill="white"/>
<path d="M428 82.5L461.5 17H469.5L436.5 82.5H428Z" stroke="#FF037D"/>
<path d="M451 82.5L482 17H490.5L459 82.5H451Z" stroke="#FF037D"/>
</g>
<g filter="url(#filter4_d_171_2)">
<path d="M1022.5 82.5L989 17H981L1014 82.5H1022.5Z" fill="white"/>
<path d="M999.5 82.5L968.5 17H960L991.5 82.5H999.5Z" fill="white"/>
<path d="M1022.5 82.5L989 17H981L1014 82.5H1022.5Z" stroke="#FF037D"/>
<path d="M999.5 82.5L968.5 17H960L991.5 82.5H999.5Z" stroke="#FF037D"/>
</g>
<defs>
<filter id="filter0_d_171_2" x="542.363" y="21.875" width="365.775" height="62.75" filterUnits="userSpaceOnUse" color-interpolation-filters="sRGB">
<feFlood flood-opacity="0" result="BackgroundImageFix"/>
<feColorMatrix in="SourceAlpha" type="matrix" values="0 0 0 0 0 0 0 0 0 0 0 0 0 0 0 0 0 0 127 0" result="hardAlpha"/>
<feOffset dx="1" dy="1"/>
<feGaussianBlur stdDeviation="4"/>
<feComposite in2="hardAlpha" operator="out"/>
<feColorMatrix type="matrix" values="0 0 0 0 0.992157 0 0 0 0 0.764706 0 0 0 0 0.176471 0 0 0 1 0"/>
<feBlend mode="normal" in2="BackgroundImageFix" result="effect1_dropShadow_171_2"/>
<feBlend mode="normal" in="SourceGraphic" in2="effect1_dropShadow_171_2" result="shape"/>
</filter>
<filter id="filter1_d_171_2" x="-10.8757" y="0.5" width="456.69" height="100" filterUnits="userSpaceOnUse" color-interpolation-filters="sRGB">
<feFlood flood-opacity="0" result="BackgroundImageFix"/>
<feColorMatrix in="SourceAlpha" type="matrix" values="0 0 0 0 0 0 0 0 0 0 0 0 0 0 0 0 0 0 127 0" result="hardAlpha"/>
<feOffset dx="1" dy="1"/>
<feGaussianBlur stdDeviation="8"/>
<feComposite in2="hardAlpha" operator="out"/>
<feColorMatrix type="matrix" values="0 0 0 0 0 0 0 0 0 1 0 0 0 0 1 0 0 0 1 0"/>
<feBlend mode="normal" in2="BackgroundImageFix" result="effect1_dropShadow_171_2"/>
<feBlend mode="normal" in="SourceGraphic" in2="effect1_dropShadow_171_2" result="shape"/>
</filter>
<filter id="filter2_d_171_2" x="1007.19" y="0.5" width="456.69" height="100" filterUnits="userSpaceOnUse" color-interpolation-filters="sRGB">
<feFlood flood-opacity="0" result="BackgroundImageFix"/>
<feColorMatrix in="SourceAlpha" type="matrix" values="0 0 0 0 0 0 0 0 0 0 0 0 0 0 0 0 0 0 127 0" result="hardAlpha"/>
<feOffset dx="1" dy="1"/>
<feGaussianBlur stdDeviation="8"/>
<feComposite in2="hardAlpha" operator="out"/>
<feColorMatrix type="matrix" values="0 0 0 0 0 0 0 0 0 1 0 0 0 0 1 0 0 0 1 0"/>
<feBlend mode="normal" in2="BackgroundImageFix" result="effect1_dropShadow_171_2"/>
<feBlend mode="normal" in="SourceGraphic" in2="effect1_dropShadow_171_2" result="shape"/>
</filter>
<filter id="filter3_d_171_2" x="412.183" y="1.5" width="96.1125" height="98.5" filterUnits="userSpaceOnUse" color-interpolation-filters="sRGB">
<feFlood flood-opacity="0" result="BackgroundImageFix"/>
<feColorMatrix in="SourceAlpha" type="matrix" values="0 0 0 0 0 0 0 0 0 0 0 0 0 0 0 0 0 0 127 0" result="hardAlpha"/>
<feOffset dx="1" dy="1"/>
<feGaussianBlur stdDeviation="8"/>
<feComposite in2="hardAlpha" operator="out"/>
<feColorMatrix type="matrix" values="0 0 0 0 1 0 0 0 0 0.0100001 0 0 0 0 0.491905 0 0 0 1 0"/>
<feBlend mode="normal" in2="BackgroundImageFix" result="effect1_dropShadow_171_2"/>
<feBlend mode="normal" in="SourceGraphic" in2="effect1_dropShadow_171_2" result="shape"/>
</filter>
<filter id="filter4_d_171_2" x="944.205" y="1.5" width="96.1125" height="98.5" filterUnits="userSpaceOnUse" color-interpolation-filters="sRGB">
<feFlood flood-opacity="0" result="BackgroundImageFix"/>
<feColorMatrix in="SourceAlpha" type="matrix" values="0 0 0 0 0 0 0 0 0 0 0 0 0 0 0 0 0 0 127 0" result="hardAlpha"/>
<feOffset dx="1" dy="1"/>
<feGaussianBlur stdDeviation="8"/>
<feComposite in2="hardAlpha" operator="out"/>
<feColorMatrix type="matrix" values="0 0 0 0 1 0 0 0 0 0.0100001 0 0 0 0 0.491905 0 0 0 1 0"/>
<feBlend mode="normal" in2="BackgroundImageFix" result="effect1_dropShadow_171_2"/>
<feBlend mode="normal" in="SourceGraphic" in2="effect1_dropShadow_171_2" result="shape"/>
</filter>
</defs>
</svg>
