<svg width="1440" height="101" viewBox="0 0 1440 101" fill="none" xmlns="http://www.w3.org/2000/svg">
<g filter="url(#filter0_d_168_67)">
<path d="M506.081 62.8438H496.269V55.8125H506.081C507.456 55.8125 508.592 55.6146 509.488 55.2188C510.383 54.8021 511.04 54.25 511.456 53.5625C511.894 52.8542 512.113 52.0521 512.113 51.1562C512.113 50.1771 511.894 49.2708 511.456 48.4375C511.04 47.6042 510.383 46.9375 509.488 46.4375C508.592 45.9167 507.456 45.6562 506.081 45.6562H499.613V75H490.613V38.5938H506.081C509.206 38.5938 511.883 39.1354 514.113 40.2188C516.363 41.3021 518.081 42.7812 519.269 44.6562C520.477 46.5312 521.081 48.6771 521.081 51.0938C521.081 52.8438 520.738 54.4479 520.05 55.9062C519.383 57.3438 518.394 58.5833 517.081 59.625C515.79 60.6667 514.217 61.4688 512.363 62.0312C510.529 62.5729 508.435 62.8438 506.081 62.8438ZM552.196 48.0625L542.509 75H533.415L547.79 38.5938H553.978L552.196 48.0625ZM561.759 75L551.884 48.0625L550.071 38.5938H556.353L570.821 75H561.759ZM561.571 61.4688V67.875H541.446V61.4688H561.571ZM604.53 65.25C604.53 64.6667 604.415 64.1354 604.186 63.6562C603.957 63.1562 603.572 62.7083 603.03 62.3125C602.509 61.9167 601.801 61.5417 600.905 61.1875C600.009 60.8333 598.895 60.5 597.561 60.1875C595.27 59.6458 593.28 59.0521 591.592 58.4062C589.926 57.7396 588.54 56.9792 587.436 56.125C586.353 55.25 585.54 54.2083 584.999 53C584.457 51.7917 584.186 50.375 584.186 48.75C584.186 47.1875 584.53 45.75 585.217 44.4375C585.905 43.125 586.874 42 588.124 41.0625C589.374 40.125 590.853 39.3958 592.561 38.875C594.27 38.3542 596.134 38.0938 598.155 38.0938C601.092 38.0938 603.686 38.5521 605.936 39.4688C608.207 40.3854 609.978 41.6875 611.249 43.375C612.52 45.0417 613.155 47.0521 613.155 49.4062H604.155C604.155 48.5312 603.915 47.7292 603.436 47C602.978 46.2708 602.311 45.6875 601.436 45.25C600.561 44.7917 599.478 44.5625 598.186 44.5625C596.936 44.5625 595.905 44.7604 595.092 45.1562C594.28 45.5312 593.676 46.0208 593.28 46.625C592.905 47.2083 592.717 47.8125 592.717 48.4375C592.717 48.9583 592.832 49.4375 593.061 49.875C593.311 50.3125 593.697 50.7188 594.217 51.0938C594.759 51.4479 595.457 51.7917 596.311 52.125C597.186 52.4375 598.238 52.75 599.467 53.0625C601.759 53.5625 603.749 54.1562 605.436 54.8438C607.145 55.5104 608.561 56.3125 609.686 57.25C610.832 58.1875 611.686 59.3021 612.249 60.5938C612.811 61.8646 613.092 63.3333 613.092 65C613.092 66.6667 612.749 68.1562 612.061 69.4688C611.395 70.7604 610.426 71.8542 609.155 72.75C607.905 73.6458 606.395 74.3333 604.624 74.8125C602.874 75.2708 600.915 75.5 598.749 75.5C596.811 75.5 594.905 75.2708 593.03 74.8125C591.155 74.3542 589.457 73.6458 587.936 72.6875C586.415 71.7083 585.197 70.4583 584.28 68.9375C583.384 67.4167 582.936 65.5938 582.936 63.4688H591.967C591.967 64.4688 592.113 65.3229 592.405 66.0312C592.717 66.7396 593.176 67.3229 593.78 67.7812C594.405 68.2188 595.165 68.5417 596.061 68.75C596.978 68.9583 598.03 69.0625 599.217 69.0625C600.551 69.0625 601.603 68.875 602.374 68.5C603.165 68.1042 603.717 67.6146 604.03 67.0312C604.363 66.4479 604.53 65.8542 604.53 65.25ZM647.395 38.5938V75H638.333V38.5938H647.395ZM659.239 38.5938V45.6562H626.739V38.5938H659.239ZM726.625 67.9688V75H705.688V67.9688H726.625ZM708.875 38.5938V75H699.875V38.5938H708.875ZM723.938 52.6562V59.6875H705.688V52.6562H723.938ZM726.656 38.5938V45.6562H705.688V38.5938H726.656ZM756.178 65.25L764.615 38.5938H774.084L760.803 75H754.24L756.178 65.25ZM747.209 38.5938L755.521 65.1562L757.615 75H750.959L737.74 38.5938H747.209ZM814.167 67.9688V75H793.23V67.9688H814.167ZM796.417 38.5938V75H787.417V38.5938H796.417ZM811.48 52.6562V59.6875H793.23V52.6562H811.48ZM814.199 38.5938V45.6562H793.23V38.5938H814.199ZM860.907 38.5938V75H851.876L837.47 51.8125V75H828.47V38.5938H837.47L851.876 61.7812V38.5938H860.907ZM895.96 38.5938V75H886.898V38.5938H895.96ZM907.804 38.5938V45.6562H875.304V38.5938H907.804ZM942.575 65.25C942.575 64.6667 942.46 64.1354 942.231 63.6562C942.002 63.1562 941.617 62.7083 941.075 62.3125C940.554 61.9167 939.846 61.5417 938.95 61.1875C938.054 60.8333 936.94 60.5 935.606 60.1875C933.315 59.6458 931.325 59.0521 929.638 58.4062C927.971 57.7396 926.585 56.9792 925.481 56.125C924.398 55.25 923.585 54.2083 923.044 53C922.502 51.7917 922.231 50.375 922.231 48.75C922.231 47.1875 922.575 45.75 923.263 44.4375C923.95 43.125 924.919 42 926.169 41.0625C927.419 40.125 928.898 39.3958 930.606 38.875C932.315 38.3542 934.179 38.0938 936.2 38.0938C939.138 38.0938 941.731 38.5521 943.981 39.4688C946.252 40.3854 948.023 41.6875 949.294 43.375C950.565 45.0417 951.2 47.0521 951.2 49.4062H942.2C942.2 48.5312 941.96 47.7292 941.481 47C941.023 46.2708 940.356 45.6875 939.481 45.25C938.606 44.7917 937.523 44.5625 936.231 44.5625C934.981 44.5625 933.95 44.7604 933.138 45.1562C932.325 45.5312 931.721 46.0208 931.325 46.625C930.95 47.2083 930.763 47.8125 930.763 48.4375C930.763 48.9583 930.877 49.4375 931.106 49.875C931.356 50.3125 931.742 50.7188 932.263 51.0938C932.804 51.4479 933.502 51.7917 934.356 52.125C935.231 52.4375 936.283 52.75 937.513 53.0625C939.804 53.5625 941.794 54.1562 943.481 54.8438C945.19 55.5104 946.606 56.3125 947.731 57.25C948.877 58.1875 949.731 59.3021 950.294 60.5938C950.856 61.8646 951.138 63.3333 951.138 65C951.138 66.6667 950.794 68.1562 950.106 69.4688C949.44 70.7604 948.471 71.8542 947.2 72.75C945.95 73.6458 944.44 74.3333 942.669 74.8125C940.919 75.2708 938.96 75.5 936.794 75.5C934.856 75.5 932.95 75.2708 931.075 74.8125C929.2 74.3542 927.502 73.6458 925.981 72.6875C924.46 71.7083 923.242 70.4583 922.325 68.9375C921.429 67.4167 920.981 65.5938 920.981 63.4688H930.013C930.013 64.4688 930.158 65.3229 930.45 66.0312C930.763 66.7396 931.221 67.3229 931.825 67.7812C932.45 68.2188 933.21 68.5417 934.106 68.75C935.023 68.9583 936.075 69.0625 937.263 69.0625C938.596 69.0625 939.648 68.875 940.419 68.5C941.21 68.1042 941.763 67.6146 942.075 67.0312C942.408 66.4479 942.575 65.8542 942.575 65.25Z" fill="white"/>
<path d="M496.269 62.8438H495.269V63.8438H496.269V62.8438ZM496.269 55.8125V54.8125H495.269V55.8125H496.269ZM509.488 55.2188L509.892 56.1334L509.9 56.1295L509.909 56.1255L509.488 55.2188ZM511.456 53.5625L510.605 53.037L510.601 53.0442L511.456 53.5625ZM511.456 48.4375L510.562 48.8847L510.566 48.8936L510.571 48.9023L511.456 48.4375ZM509.488 46.4375L508.985 47.302L508.992 47.3064L509 47.3107L509.488 46.4375ZM499.613 45.6562V44.6562H498.613V45.6562H499.613ZM499.613 75V76H500.613V75H499.613ZM490.613 75H489.613V76H490.613V75ZM490.613 38.5938V37.5938H489.613V38.5938H490.613ZM514.113 40.2188L513.675 41.1182L513.679 41.1198L514.113 40.2188ZM519.269 44.6562L518.424 45.1913L518.428 45.198L519.269 44.6562ZM520.05 55.9062L519.145 55.4798L519.143 55.4855L520.05 55.9062ZM517.081 59.625L516.46 58.8417L516.454 58.8466L517.081 59.625ZM512.363 62.0312L512.646 62.9903L512.653 62.9882L512.363 62.0312ZM506.081 61.8438H496.269V63.8438H506.081V61.8438ZM497.269 62.8438V55.8125H495.269V62.8438H497.269ZM496.269 56.8125H506.081V54.8125H496.269V56.8125ZM506.081 56.8125C507.543 56.8125 508.828 56.6034 509.892 56.1334L509.083 54.3041C508.355 54.6258 507.369 54.8125 506.081 54.8125V56.8125ZM509.909 56.1255C510.943 55.6445 511.771 54.9732 512.311 54.0808L510.601 53.0442C510.309 53.5268 509.823 53.9597 509.066 54.312L509.909 56.1255ZM512.307 54.088C512.85 53.2097 513.113 52.223 513.113 51.1562H511.113C511.113 51.8811 510.938 52.4986 510.605 53.037L512.307 54.088ZM513.113 51.1562C513.113 50.0219 512.858 48.9552 512.342 47.9727L510.571 48.9023C510.93 49.5864 511.113 50.3323 511.113 51.1562H513.113ZM512.351 47.9903C511.835 46.9592 511.028 46.1519 509.975 45.5643L509 47.3107C509.739 47.7231 510.244 48.2491 510.562 48.8847L512.351 47.9903ZM509.99 45.573C508.9 44.939 507.577 44.6562 506.081 44.6562V46.6562C507.336 46.6562 508.284 46.8943 508.985 47.302L509.99 45.573ZM506.081 44.6562H499.613V46.6562H506.081V44.6562ZM498.613 45.6562V75H500.613V45.6562H498.613ZM499.613 74H490.613V76H499.613V74ZM491.613 75V38.5938H489.613V75H491.613ZM490.613 39.5938H506.081V37.5938H490.613V39.5938ZM506.081 39.5938C509.093 39.5938 511.613 40.116 513.675 41.1182L514.55 39.3193C512.153 38.1549 509.319 37.5938 506.081 37.5938V39.5938ZM513.679 41.1198C515.782 42.1324 517.349 43.4935 518.424 45.1913L520.114 44.1212C518.814 42.069 516.943 40.4718 514.546 39.3177L513.679 41.1198ZM518.428 45.198C519.524 46.898 520.081 48.8525 520.081 51.0938H522.081C522.081 48.5017 521.43 46.1645 520.109 44.1145L518.428 45.198ZM520.081 51.0938C520.081 52.7091 519.765 54.166 519.145 55.4798L520.955 56.3327C521.71 54.7299 522.081 52.9784 522.081 51.0938H520.081ZM519.143 55.4855C518.546 56.7734 517.657 57.8913 516.46 58.8417L517.703 60.4083C519.13 59.2754 520.221 57.9141 520.957 56.327L519.143 55.4855ZM516.454 58.8466C515.277 59.7953 513.824 60.5429 512.072 61.0743L512.653 62.9882C514.61 62.3946 516.302 61.538 517.709 60.4034L516.454 58.8466ZM512.079 61.0722C510.356 61.5813 508.361 61.8438 506.081 61.8438V63.8438C508.51 63.8438 510.702 63.5645 512.646 62.9903L512.079 61.0722ZM552.196 48.0625L553.137 48.4009L553.164 48.3258L553.179 48.2474L552.196 48.0625ZM542.509 75V76H543.212L543.45 75.3384L542.509 75ZM533.415 75L532.485 74.6327L531.945 76H533.415V75ZM547.79 38.5938V37.5938H547.11L546.86 38.2265L547.79 38.5938ZM553.978 38.5938L554.96 38.7786L555.183 37.5938H553.978V38.5938ZM561.759 75L560.82 75.3442L561.06 76H561.759V75ZM551.884 48.0625L550.902 48.2505L550.917 48.3304L550.945 48.4067L551.884 48.0625ZM550.071 38.5938V37.5938H548.862L549.089 38.7818L550.071 38.5938ZM556.353 38.5938L557.282 38.2244L557.031 37.5938H556.353V38.5938ZM570.821 75V76H572.295L571.751 74.6307L570.821 75ZM561.571 61.4688H562.571V60.4688H561.571V61.4688ZM561.571 67.875V68.875H562.571V67.875H561.571ZM541.446 67.875H540.446V68.875H541.446V67.875ZM541.446 61.4688V60.4688H540.446V61.4688H541.446ZM551.255 47.7241L541.568 74.6616L543.45 75.3384L553.137 48.4009L551.255 47.7241ZM542.509 74H533.415V76H542.509V74ZM534.345 75.3673L548.72 38.961L546.86 38.2265L532.485 74.6327L534.345 75.3673ZM547.79 39.5938H553.978V37.5938H547.79V39.5938ZM552.995 38.4089L551.213 47.8776L553.179 48.2474L554.96 38.7786L552.995 38.4089ZM562.698 74.6558L552.823 47.7183L550.945 48.4067L560.82 75.3442L562.698 74.6558ZM552.866 47.8745L551.053 38.4057L549.089 38.7818L550.902 48.2505L552.866 47.8745ZM550.071 39.5938H556.353V37.5938H550.071V39.5938ZM555.423 38.9631L569.892 75.3693L571.751 74.6307L557.282 38.2244L555.423 38.9631ZM570.821 74H561.759V76H570.821V74ZM560.571 61.4688V67.875H562.571V61.4688H560.571ZM561.571 66.875H541.446V68.875H561.571V66.875ZM542.446 67.875V61.4688H540.446V67.875H542.446ZM541.446 62.4688H561.571V60.4688H541.446V62.4688ZM604.186 63.6562L603.277 64.0729L603.281 64.0803L603.284 64.0877L604.186 63.6562ZM603.03 62.3125L602.425 63.1087L602.432 63.1143L602.44 63.1199L603.03 62.3125ZM597.561 60.1875L597.331 61.1607L597.333 61.1611L597.561 60.1875ZM591.592 58.4062L591.221 59.3347L591.228 59.3375L591.235 59.3402L591.592 58.4062ZM587.436 56.125L586.808 56.9029L586.816 56.9095L586.824 56.916L587.436 56.125ZM584.999 53L584.086 53.4091L584.999 53ZM605.936 39.4688L605.559 40.3948L605.562 40.396L605.936 39.4688ZM611.249 43.375L610.45 43.9766L610.454 43.9813L611.249 43.375ZM613.155 49.4062V50.4062H614.155V49.4062H613.155ZM604.155 49.4062H603.155V50.4062H604.155V49.4062ZM603.436 47L602.59 47.5322L602.595 47.5407L602.601 47.5492L603.436 47ZM601.436 45.25L600.972 46.1358L600.981 46.1402L600.989 46.1444L601.436 45.25ZM595.092 45.1562L595.512 46.0642L595.521 46.0598L595.53 46.0552L595.092 45.1562ZM593.28 46.625L592.444 46.077L592.439 46.0842L593.28 46.625ZM593.061 49.875L592.175 50.339L592.184 50.3552L592.193 50.3711L593.061 49.875ZM594.217 51.0938L593.633 51.9053L593.651 51.9184L593.67 51.9307L594.217 51.0938ZM596.311 52.125L595.948 53.0566L595.961 53.0619L595.975 53.0667L596.311 52.125ZM599.467 53.0625L599.221 54.0317L599.238 54.0359L599.254 54.0395L599.467 53.0625ZM605.436 54.8438L605.059 55.7698L605.066 55.7726L605.073 55.7753L605.436 54.8438ZM609.686 57.25L609.046 58.0183L609.053 58.024L609.686 57.25ZM612.249 60.5938L611.332 60.993L611.334 60.9985L612.249 60.5938ZM612.061 69.4688L611.175 69.0047L611.173 69.0101L612.061 69.4688ZM609.155 72.75L608.579 71.9326L608.572 71.9372L609.155 72.75ZM604.624 74.8125L604.877 75.7799L604.885 75.7778L604.624 74.8125ZM587.936 72.6875L587.395 73.5283L587.403 73.5335L587.936 72.6875ZM584.28 68.9375L583.418 69.4451L583.424 69.4537L584.28 68.9375ZM582.936 63.4688V62.4688H581.936V63.4688H582.936ZM591.967 63.4688H592.967V62.4688H591.967V63.4688ZM592.405 66.0312L591.48 66.412L591.485 66.4235L591.49 66.4349L592.405 66.0312ZM593.78 67.7812L593.176 68.5779L593.191 68.5895L593.207 68.6005L593.78 67.7812ZM596.061 68.75L595.835 69.724L595.84 69.7251L596.061 68.75ZM602.374 68.5L602.811 69.3993L602.821 69.3944L602.374 68.5ZM604.03 67.0312L603.162 66.5351L603.155 66.547L603.149 66.559L604.03 67.0312ZM605.53 65.25C605.53 64.5322 605.388 63.8515 605.088 63.2248L603.284 64.0877C603.443 64.4194 603.53 64.8011 603.53 65.25H605.53ZM605.095 63.2396C604.781 62.5535 604.27 61.9798 603.62 61.5051L602.44 63.1199C602.874 63.4369 603.133 63.759 603.277 64.0729L605.095 63.2396ZM603.635 61.5163C603.016 61.0459 602.217 60.631 601.273 60.2575L600.537 62.1175C601.384 62.4523 602.002 62.7874 602.425 63.1087L603.635 61.5163ZM601.273 60.2575C600.317 59.8797 599.152 59.5333 597.789 59.2139L597.333 61.1611C598.637 61.4667 599.701 61.787 600.537 62.1175L601.273 60.2575ZM597.791 59.2143C595.531 58.68 593.586 58.0983 591.95 57.4723L591.235 59.3402C592.974 60.0058 595.008 60.6117 597.331 61.1607L597.791 59.2143ZM591.964 57.4778C590.36 56.8363 589.061 56.1179 588.048 55.334L586.824 56.916C588.019 57.8404 589.492 58.6429 591.221 59.3347L591.964 57.4778ZM588.065 55.3471C587.097 54.5657 586.385 53.6482 585.911 52.5909L584.086 53.4091C584.696 54.7684 585.609 55.9343 586.808 56.9029L588.065 55.3471ZM585.911 52.5909C585.439 51.537 585.186 50.2653 585.186 48.75H583.186C583.186 50.4847 583.475 52.0463 584.086 53.4091L585.911 52.5909ZM585.186 48.75C585.186 47.34 585.495 46.063 586.103 44.9015L584.332 43.9735C583.565 45.437 583.186 47.035 583.186 48.75H585.186ZM586.103 44.9015C586.718 43.7281 587.586 42.7157 588.724 41.8625L587.524 40.2625C586.161 41.2843 585.092 42.5219 584.332 43.9735L586.103 44.9015ZM588.724 41.8625C589.869 41.0039 591.24 40.3233 592.853 39.8315L592.27 37.9185C590.466 38.4684 588.879 39.2461 587.524 40.2625L588.724 41.8625ZM592.853 39.8315C594.455 39.343 596.22 39.0938 598.155 39.0938V37.0938C596.048 37.0938 594.084 37.3653 592.27 37.9185L592.853 39.8315ZM598.155 39.0938C600.99 39.0938 603.451 39.536 605.559 40.3948L606.314 38.5427C603.922 37.5681 601.195 37.0938 598.155 37.0938V39.0938ZM605.562 40.396C607.692 41.2557 609.305 42.456 610.45 43.9766L612.048 42.7734C610.651 40.919 608.723 39.5151 606.311 38.5415L605.562 40.396ZM610.454 43.9813C611.575 45.4525 612.155 47.2428 612.155 49.4062H614.155C614.155 46.8614 613.464 44.6308 612.044 42.7687L610.454 43.9813ZM613.155 48.4062H604.155V50.4062H613.155V48.4062ZM605.155 49.4062C605.155 48.3367 604.859 47.3436 604.272 46.4508L602.601 47.5492C602.972 48.1147 603.155 48.7258 603.155 49.4062H605.155ZM604.283 46.4678C603.714 45.5634 602.9 44.8636 601.883 44.3556L600.989 46.1444C601.723 46.5114 602.241 46.9783 602.59 47.5322L604.283 46.4678ZM601.9 44.3642C600.845 43.8113 599.592 43.5625 598.186 43.5625V45.5625C599.364 45.5625 600.278 45.772 600.972 46.1358L601.9 44.3642ZM598.186 43.5625C596.839 43.5625 595.645 43.7745 594.655 44.2573L595.53 46.0552C596.165 45.7463 597.033 45.5625 598.186 45.5625V43.5625ZM594.673 44.2483C593.731 44.6831 592.964 45.2825 592.444 46.077L594.116 47.173C594.388 46.7592 594.829 46.3794 595.512 46.0642L594.673 44.2483ZM592.439 46.0842C591.972 46.8106 591.717 47.6001 591.717 48.4375H593.717C593.717 48.0249 593.838 47.6061 594.121 47.1658L592.439 46.0842ZM591.717 48.4375C591.717 49.1109 591.867 49.7505 592.175 50.339L593.947 49.411C593.797 49.1245 593.717 48.8058 593.717 48.4375H591.717ZM592.193 50.3711C592.531 50.962 593.027 51.4688 593.633 51.9053L594.802 50.2822C594.366 49.9687 594.092 49.663 593.929 49.3789L592.193 50.3711ZM593.67 51.9307C594.288 52.3347 595.053 52.7076 595.948 53.0566L596.675 51.1934C595.861 50.8757 595.23 50.5611 594.765 50.2568L593.67 51.9307ZM595.975 53.0667C596.888 53.3928 597.972 53.714 599.221 54.0317L599.714 52.0933C598.505 51.786 597.485 51.4822 596.648 51.1833L595.975 53.0667ZM599.254 54.0395C601.505 54.5306 603.437 55.1091 605.059 55.7698L605.814 53.9177C604.06 53.2034 602.013 52.5944 599.681 52.0855L599.254 54.0395ZM605.073 55.7753C606.705 56.4123 608.022 57.1646 609.046 58.0182L610.326 56.4818C609.101 55.4604 607.584 54.6086 605.8 53.9122L605.073 55.7753ZM609.053 58.024C610.082 58.8661 610.836 59.8544 611.332 60.993L613.166 60.1945C612.536 58.7497 611.582 57.5089 610.319 56.476L609.053 58.024ZM611.334 60.9985C611.83 62.1191 612.092 63.4455 612.092 65H614.092C614.092 63.2212 613.792 61.6101 613.163 60.189L611.334 60.9985ZM612.092 65C612.092 66.5255 611.779 67.8525 611.175 69.0047L612.947 69.9328C613.719 68.46 614.092 66.8079 614.092 65H612.092ZM611.173 69.0101C610.585 70.1489 609.728 71.1229 608.579 71.9327L609.731 73.5673C611.124 72.5854 612.204 71.3719 612.95 69.9274L611.173 69.0101ZM608.572 71.9372C607.436 72.7514 606.04 73.3934 604.363 73.8472L604.885 75.7778C606.749 75.2733 608.374 74.5403 609.738 73.5628L608.572 71.9372ZM604.37 73.8451C602.717 74.278 600.846 74.5 598.749 74.5V76.5C600.985 76.5 603.03 76.2636 604.877 75.7799L604.37 73.8451ZM598.749 74.5C596.891 74.5 595.064 74.2804 593.267 73.8411L592.793 75.7839C594.746 76.2613 596.732 76.5 598.749 76.5V74.5ZM593.267 73.8411C591.489 73.4065 589.893 72.7383 588.469 71.8415L587.403 73.5335C589.022 74.5534 590.821 75.3019 592.793 75.7839L593.267 73.8411ZM588.478 71.8467C587.083 70.9486 585.973 69.8088 585.136 68.4213L583.424 69.4537C584.421 71.1079 585.748 72.468 587.395 73.5283L588.478 71.8467ZM585.142 68.43C584.353 67.0916 583.936 65.4517 583.936 63.4688H581.936C581.936 65.7358 582.415 67.7418 583.418 69.445L585.142 68.43ZM582.936 64.4688H591.967V62.4688H582.936V64.4688ZM590.967 63.4688C590.967 64.5614 591.126 65.5521 591.48 66.412L593.33 65.6505C593.1 65.0937 592.967 64.3761 592.967 63.4688H590.967ZM591.49 66.4349C591.87 67.2951 592.433 68.0148 593.176 68.5779L594.384 66.9846C593.918 66.631 593.565 66.1841 593.32 65.6276L591.49 66.4349ZM593.207 68.6005C593.955 69.1247 594.839 69.4925 595.835 69.724L596.288 67.776C595.491 67.5908 594.855 67.3128 594.353 66.962L593.207 68.6005ZM595.84 69.7251C596.845 69.9536 597.974 70.0625 599.217 70.0625V68.0625C598.086 68.0625 597.111 67.963 596.283 67.7749L595.84 69.7251ZM599.217 70.0625C600.627 70.0625 601.849 69.8672 602.811 69.3992L601.936 67.6008C601.357 67.8828 600.475 68.0625 599.217 68.0625V70.0625ZM602.821 69.3944C603.736 68.9369 604.473 68.3215 604.911 67.5035L603.149 66.559C602.962 66.9077 602.595 67.2715 601.927 67.6056L602.821 69.3944ZM604.898 67.5274C605.308 66.8103 605.53 66.0471 605.53 65.25H603.53C603.53 65.6612 603.419 66.0856 603.162 66.5351L604.898 67.5274ZM647.395 38.5938H648.395V37.5938H647.395V38.5938ZM647.395 75V76H648.395V75H647.395ZM638.333 75H637.333V76H638.333V75ZM638.333 38.5938V37.5938H637.333V38.5938H638.333ZM659.239 38.5938H660.239V37.5938H659.239V38.5938ZM659.239 45.6562V46.6562H660.239V45.6562H659.239ZM626.739 45.6562H625.739V46.6562H626.739V45.6562ZM626.739 38.5938V37.5938H625.739V38.5938H626.739ZM646.395 38.5938V75H648.395V38.5938H646.395ZM647.395 74H638.333V76H647.395V74ZM639.333 75V38.5938H637.333V75H639.333ZM638.333 39.5938H647.395V37.5938H638.333V39.5938ZM658.239 38.5938V45.6562H660.239V38.5938H658.239ZM659.239 44.6562H626.739V46.6562H659.239V44.6562ZM627.739 45.6562V38.5938H625.739V45.6562H627.739ZM626.739 39.5938H659.239V37.5938H626.739V39.5938ZM726.625 67.9688H727.625V66.9688H726.625V67.9688ZM726.625 75V76H727.625V75H726.625ZM705.688 75H704.688V76H705.688V75ZM705.688 67.9688V66.9688H704.688V67.9688H705.688ZM708.875 38.5938H709.875V37.5938H708.875V38.5938ZM708.875 75V76H709.875V75H708.875ZM699.875 75H698.875V76H699.875V75ZM699.875 38.5938V37.5938H698.875V38.5938H699.875ZM723.938 52.6562H724.938V51.6562H723.938V52.6562ZM723.938 59.6875V60.6875H724.938V59.6875H723.938ZM705.688 59.6875H704.688V60.6875H705.688V59.6875ZM705.688 52.6562V51.6562H704.688V52.6562H705.688ZM726.656 38.5938H727.656V37.5938H726.656V38.5938ZM726.656 45.6562V46.6562H727.656V45.6562H726.656ZM705.688 45.6562H704.688V46.6562H705.688V45.6562ZM705.688 38.5938V37.5938H704.688V38.5938H705.688ZM725.625 67.9688V75H727.625V67.9688H725.625ZM726.625 74H705.688V76H726.625V74ZM706.688 75V67.9688H704.688V75H706.688ZM705.688 68.9688H726.625V66.9688H705.688V68.9688ZM707.875 38.5938V75H709.875V38.5938H707.875ZM708.875 74H699.875V76H708.875V74ZM700.875 75V38.5938H698.875V75H700.875ZM699.875 39.5938H708.875V37.5938H699.875V39.5938ZM722.938 52.6562V59.6875H724.938V52.6562H722.938ZM723.938 58.6875H705.688V60.6875H723.938V58.6875ZM706.688 59.6875V52.6562H704.688V59.6875H706.688ZM705.688 53.6562H723.938V51.6562H705.688V53.6562ZM725.656 38.5938V45.6562H727.656V38.5938H725.656ZM726.656 44.6562H705.688V46.6562H726.656V44.6562ZM706.688 45.6562V38.5938H704.688V45.6562H706.688ZM705.688 39.5938H726.656V37.5938H705.688V39.5938ZM756.177 65.25L755.224 64.9482L755.207 65.0009L755.197 65.0551L756.177 65.25ZM764.615 38.5938V37.5938H763.883L763.662 38.292L764.615 38.5938ZM774.084 38.5938L775.023 38.9365L775.513 37.5938H774.084V38.5938ZM760.802 75V76H761.502L761.742 75.3427L760.802 75ZM754.24 75L753.259 74.8051L753.022 76H754.24V75ZM747.209 38.5938L748.163 38.2951L747.944 37.5938H747.209V38.5938ZM755.521 65.1562L756.499 64.9482L756.49 64.9023L756.476 64.8576L755.521 65.1562ZM757.615 75V76H758.85L758.593 74.792L757.615 75ZM750.959 75L750.019 75.3413L750.258 76H750.959V75ZM737.74 38.5938V37.5938H736.313L736.8 38.935L737.74 38.5938ZM757.131 65.5518L765.568 38.8955L763.662 38.292L755.224 64.9482L757.131 65.5518ZM764.615 39.5938H774.084V37.5938H764.615V39.5938ZM773.144 38.251L759.863 74.6573L761.742 75.3427L775.023 38.9365L773.144 38.251ZM760.802 74H754.24V76H760.802V74ZM755.221 75.1949L757.158 65.4449L755.197 65.0551L753.259 74.8051L755.221 75.1949ZM746.254 38.8924L754.567 65.4549L756.476 64.8576L748.163 38.2951L746.254 38.8924ZM754.543 65.3643L756.637 75.208L758.593 74.792L756.499 64.9482L754.543 65.3643ZM757.615 74H750.959V76H757.615V74ZM751.899 74.6587L738.68 38.2525L736.8 38.935L750.019 75.3413L751.899 74.6587ZM737.74 39.5938H747.209V37.5938H737.74V39.5938ZM814.167 67.9688H815.167V66.9688H814.167V67.9688ZM814.167 75V76H815.167V75H814.167ZM793.23 75H792.23V76H793.23V75ZM793.23 67.9688V66.9688H792.23V67.9688H793.23ZM796.417 38.5938H797.417V37.5938H796.417V38.5938ZM796.417 75V76H797.417V75H796.417ZM787.417 75H786.417V76H787.417V75ZM787.417 38.5938V37.5938H786.417V38.5938H787.417ZM811.48 52.6562H812.48V51.6562H811.48V52.6562ZM811.48 59.6875V60.6875H812.48V59.6875H811.48ZM793.23 59.6875H792.23V60.6875H793.23V59.6875ZM793.23 52.6562V51.6562H792.23V52.6562H793.23ZM814.199 38.5938H815.199V37.5938H814.199V38.5938ZM814.199 45.6562V46.6562H815.199V45.6562H814.199ZM793.23 45.6562H792.23V46.6562H793.23V45.6562ZM793.23 38.5938V37.5938H792.23V38.5938H793.23ZM813.167 67.9688V75H815.167V67.9688H813.167ZM814.167 74H793.23V76H814.167V74ZM794.23 75V67.9688H792.23V75H794.23ZM793.23 68.9688H814.167V66.9688H793.23V68.9688ZM795.417 38.5938V75H797.417V38.5938H795.417ZM796.417 74H787.417V76H796.417V74ZM788.417 75V38.5938H786.417V75H788.417ZM787.417 39.5938H796.417V37.5938H787.417V39.5938ZM810.48 52.6562V59.6875H812.48V52.6562H810.48ZM811.48 58.6875H793.23V60.6875H811.48V58.6875ZM794.23 59.6875V52.6562H792.23V59.6875H794.23ZM793.23 53.6562H811.48V51.6562H793.23V53.6562ZM813.199 38.5938V45.6562H815.199V38.5938H813.199ZM814.199 44.6562H793.23V46.6562H814.199V44.6562ZM794.23 45.6562V38.5938H792.23V45.6562H794.23ZM793.23 39.5938H814.199V37.5938H793.23V39.5938ZM860.907 38.5938H861.907V37.5938H860.907V38.5938ZM860.907 75V76H861.907V75H860.907ZM851.876 75L851.027 75.5277L851.32 76H851.876V75ZM837.47 51.8125L838.319 51.2848L836.47 48.3081V51.8125H837.47ZM837.47 75V76H838.47V75H837.47ZM828.47 75H827.47V76H828.47V75ZM828.47 38.5938V37.5938H827.47V38.5938H828.47ZM837.47 38.5938L838.319 38.066L838.026 37.5938H837.47V38.5938ZM851.876 61.7812L851.027 62.309L852.876 65.2857V61.7812H851.876ZM851.876 38.5938V37.5938H850.876V38.5938H851.876ZM859.907 38.5938V75H861.907V38.5938H859.907ZM860.907 74H851.876V76H860.907V74ZM852.726 74.4723L838.319 51.2848L836.621 52.3402L851.027 75.5277L852.726 74.4723ZM836.47 51.8125V75H838.47V51.8125H836.47ZM837.47 74H828.47V76H837.47V74ZM829.47 75V38.5938H827.47V75H829.47ZM828.47 39.5938H837.47V37.5938H828.47V39.5938ZM836.621 39.1215L851.027 62.309L852.726 61.2535L838.319 38.066L836.621 39.1215ZM852.876 61.7812V38.5938H850.876V61.7812H852.876ZM851.876 39.5938H860.907V37.5938H851.876V39.5938ZM895.96 38.5938H896.96V37.5938H895.96V38.5938ZM895.96 75V76H896.96V75H895.96ZM886.898 75H885.898V76H886.898V75ZM886.898 38.5938V37.5938H885.898V38.5938H886.898ZM907.804 38.5938H908.804V37.5938H907.804V38.5938ZM907.804 45.6562V46.6562H908.804V45.6562H907.804ZM875.304 45.6562H874.304V46.6562H875.304V45.6562ZM875.304 38.5938V37.5938H874.304V38.5938H875.304ZM894.96 38.5938V75H896.96V38.5938H894.96ZM895.96 74H886.898V76H895.96V74ZM887.898 75V38.5938H885.898V75H887.898ZM886.898 39.5938H895.96V37.5938H886.898V39.5938ZM906.804 38.5938V45.6562H908.804V38.5938H906.804ZM907.804 44.6562H875.304V46.6562H907.804V44.6562ZM876.304 45.6562V38.5938H874.304V45.6562H876.304ZM875.304 39.5938H907.804V37.5938H875.304V39.5938ZM942.231 63.6562L941.322 64.0729L941.326 64.0803L941.329 64.0877L942.231 63.6562ZM941.075 62.3125L940.47 63.1087L940.477 63.1143L940.485 63.1199L941.075 62.3125ZM935.606 60.1875L935.376 61.1607L935.378 61.1611L935.606 60.1875ZM929.638 58.4062L929.266 59.3347L929.273 59.3375L929.28 59.3402L929.638 58.4062ZM925.481 56.125L924.853 56.9029L924.861 56.9095L924.869 56.916L925.481 56.125ZM923.044 53L922.131 53.4091L923.044 53ZM943.981 39.4688L943.604 40.3948L943.607 40.396L943.981 39.4688ZM949.294 43.375L948.495 43.9766L948.499 43.9813L949.294 43.375ZM951.2 49.4062V50.4062H952.2V49.4062H951.2ZM942.2 49.4062H941.2V50.4062H942.2V49.4062ZM941.481 47L940.635 47.5322L940.64 47.5407L940.646 47.5492L941.481 47ZM939.481 45.25L939.017 46.1358L939.026 46.1402L939.034 46.1444L939.481 45.25ZM933.138 45.1562L933.557 46.0642L933.566 46.0598L933.575 46.0552L933.138 45.1562ZM931.325 46.625L930.489 46.077L930.484 46.0842L931.325 46.625ZM931.106 49.875L930.22 50.339L930.229 50.3552L930.238 50.3711L931.106 49.875ZM932.263 51.0938L931.678 51.9053L931.696 51.9184L931.715 51.9307L932.263 51.0938ZM934.356 52.125L933.993 53.0566L934.006 53.0619L934.02 53.0667L934.356 52.125ZM937.513 53.0625L937.266 54.0317L937.283 54.0359L937.299 54.0395L937.513 53.0625ZM943.481 54.8438L943.104 55.7698L943.111 55.7726L943.118 55.7753L943.481 54.8438ZM947.731 57.25L947.091 58.0183L947.098 58.024L947.731 57.25ZM950.294 60.5938L949.377 60.993L949.379 60.9985L950.294 60.5938ZM950.106 69.4688L949.22 69.0047L949.218 69.0101L950.106 69.4688ZM947.2 72.75L946.624 71.9326L946.617 71.9372L947.2 72.75ZM942.669 74.8125L942.922 75.7799L942.93 75.7778L942.669 74.8125ZM925.981 72.6875L925.44 73.5283L925.448 73.5335L925.981 72.6875ZM922.325 68.9375L921.463 69.4451L921.469 69.4537L922.325 68.9375ZM920.981 63.4688V62.4688H919.981V63.4688H920.981ZM930.013 63.4688H931.013V62.4688H930.013V63.4688ZM930.45 66.0312L929.525 66.412L929.53 66.4235L929.535 66.4349L930.45 66.0312ZM931.825 67.7812L931.221 68.5779L931.236 68.5895L931.252 68.6005L931.825 67.7812ZM934.106 68.75L933.88 69.724L933.885 69.7251L934.106 68.75ZM940.419 68.5L940.856 69.3993L940.866 69.3944L940.419 68.5ZM942.075 67.0312L941.207 66.5351L941.2 66.547L941.194 66.559L942.075 67.0312ZM943.575 65.25C943.575 64.5322 943.433 63.8515 943.133 63.2248L941.329 64.0877C941.488 64.4194 941.575 64.8011 941.575 65.25H943.575ZM943.14 63.2396C942.826 62.5535 942.315 61.9798 941.665 61.5051L940.485 63.1199C940.919 63.4369 941.178 63.759 941.322 64.0729L943.14 63.2396ZM941.68 61.5163C941.061 61.0459 940.262 60.631 939.318 60.2575L938.582 62.1175C939.429 62.4523 940.047 62.7874 940.47 63.1087L941.68 61.5163ZM939.318 60.2575C938.362 59.8797 937.197 59.5333 935.834 59.2139L935.378 61.1611C936.682 61.4667 937.746 61.787 938.582 62.1175L939.318 60.2575ZM935.836 59.2143C933.576 58.68 931.631 58.0983 929.995 57.4723L929.28 59.3402C931.019 60.0058 933.053 60.6117 935.376 61.1607L935.836 59.2143ZM930.009 57.4778C928.405 56.8363 927.106 56.1179 926.093 55.334L924.869 56.916C926.064 57.8404 927.537 58.6429 929.266 59.3347L930.009 57.4778ZM926.11 55.3471C925.142 54.5657 924.43 53.6482 923.956 52.5909L922.131 53.4091C922.741 54.7684 923.654 55.9343 924.853 56.9029L926.11 55.3471ZM923.956 52.5909C923.484 51.537 923.231 50.2653 923.231 48.75H921.231C921.231 50.4847 921.52 52.0463 922.131 53.4091L923.956 52.5909ZM923.231 48.75C923.231 47.34 923.54 46.063 924.148 44.9015L922.377 43.9735C921.61 45.437 921.231 47.035 921.231 48.75H923.231ZM924.148 44.9015C924.763 43.7281 925.631 42.7157 926.769 41.8625L925.569 40.2625C924.206 41.2843 923.137 42.5219 922.377 43.9735L924.148 44.9015ZM926.769 41.8625C927.914 41.0039 929.285 40.3233 930.898 39.8315L930.315 37.9185C928.511 38.4684 926.924 39.2461 925.569 40.2625L926.769 41.8625ZM930.898 39.8315C932.5 39.343 934.265 39.0938 936.2 39.0938V37.0938C934.093 37.0938 932.129 37.3653 930.315 37.9185L930.898 39.8315ZM936.2 39.0938C939.035 39.0938 941.496 39.536 943.604 40.3948L944.359 38.5427C941.967 37.5681 939.241 37.0938 936.2 37.0938V39.0938ZM943.607 40.396C945.737 41.2557 947.35 42.456 948.495 43.9766L950.093 42.7734C948.696 40.919 946.768 39.5151 944.356 38.5415L943.607 40.396ZM948.499 43.9813C949.62 45.4525 950.2 47.2428 950.2 49.4062H952.2C952.2 46.8614 951.509 44.6308 950.089 42.7687L948.499 43.9813ZM951.2 48.4062H942.2V50.4062H951.2V48.4062ZM943.2 49.4062C943.2 48.3367 942.904 47.3436 942.317 46.4508L940.646 47.5492C941.017 48.1147 941.2 48.7258 941.2 49.4062H943.2ZM942.328 46.4678C941.759 45.5634 940.945 44.8636 939.928 44.3556L939.034 46.1444C939.768 46.5114 940.286 46.9783 940.635 47.5322L942.328 46.4678ZM939.945 44.3642C938.89 43.8113 937.637 43.5625 936.231 43.5625V45.5625C937.409 45.5625 938.323 45.772 939.017 46.1358L939.945 44.3642ZM936.231 43.5625C934.884 43.5625 933.69 43.7745 932.7 44.2573L933.575 46.0552C934.21 45.7463 935.078 45.5625 936.231 45.5625V43.5625ZM932.718 44.2483C931.776 44.6831 931.009 45.2825 930.489 46.077L932.161 47.173C932.433 46.7592 932.874 46.3794 933.557 46.0642L932.718 44.2483ZM930.484 46.0842C930.017 46.8106 929.763 47.6001 929.763 48.4375H931.763C931.763 48.0249 931.883 47.6061 932.166 47.1658L930.484 46.0842ZM929.763 48.4375C929.763 49.1109 929.912 49.7505 930.22 50.339L931.992 49.411C931.842 49.1245 931.763 48.8058 931.763 48.4375H929.763ZM930.238 50.3711C930.576 50.962 931.072 51.4688 931.678 51.9053L932.847 50.2822C932.411 49.9687 932.137 49.663 931.975 49.3789L930.238 50.3711ZM931.715 51.9307C932.333 52.3347 933.099 52.7076 933.993 53.0566L934.72 51.1934C933.906 50.8757 933.275 50.5611 932.81 50.2568L931.715 51.9307ZM934.02 53.0667C934.933 53.3928 936.017 53.714 937.266 54.0317L937.759 52.0933C936.55 51.786 935.53 51.4822 934.693 51.1833L934.02 53.0667ZM937.299 54.0395C939.55 54.5306 941.482 55.1091 943.104 55.7698L943.859 53.9177C942.105 53.2034 940.058 52.5944 937.726 52.0855L937.299 54.0395ZM943.118 55.7753C944.75 56.4123 946.067 57.1646 947.091 58.0182L948.371 56.4818C947.146 55.4604 945.629 54.6086 943.845 53.9122L943.118 55.7753ZM947.098 58.024C948.127 58.8661 948.881 59.8544 949.377 60.993L951.211 60.1945C950.581 58.7497 949.627 57.5089 948.365 56.476L947.098 58.024ZM949.379 60.9985C949.875 62.1191 950.138 63.4455 950.138 65H952.138C952.138 63.2212 951.837 61.6101 951.208 60.189L949.379 60.9985ZM950.138 65C950.138 66.5255 949.824 67.8525 949.22 69.0047L950.992 69.9328C951.764 68.46 952.138 66.8079 952.138 65H950.138ZM949.218 69.0101C948.63 70.1489 947.773 71.1229 946.624 71.9327L947.776 73.5673C949.169 72.5854 950.249 71.3719 950.995 69.9274L949.218 69.0101ZM946.617 71.9372C945.481 72.7514 944.085 73.3934 942.408 73.8472L942.93 75.7778C944.794 75.2733 946.419 74.5403 947.783 73.5628L946.617 71.9372ZM942.415 73.8451C940.763 74.278 938.891 74.5 936.794 74.5V76.5C939.03 76.5 941.075 76.2636 942.922 75.7799L942.415 73.8451ZM936.794 74.5C934.936 74.5 933.109 74.2804 931.312 73.8411L930.838 75.7839C932.791 76.2613 934.777 76.5 936.794 76.5V74.5ZM931.312 73.8411C929.534 73.4065 927.938 72.7383 926.514 71.8415L925.448 73.5335C927.067 74.5534 928.866 75.3019 930.838 75.7839L931.312 73.8411ZM926.523 71.8467C925.128 70.9486 924.018 69.8088 923.181 68.4213L921.469 69.4537C922.466 71.1079 923.793 72.468 925.44 73.5283L926.523 71.8467ZM923.187 68.43C922.398 67.0916 921.981 65.4517 921.981 63.4688H919.981C919.981 65.7358 920.46 67.7418 921.463 69.445L923.187 68.43ZM920.981 64.4688H930.013V62.4688H920.981V64.4688ZM929.013 63.4688C929.013 64.5614 929.171 65.5521 929.525 66.412L931.375 65.6505C931.145 65.0937 931.013 64.3761 931.013 63.4688H929.013ZM929.535 66.4349C929.915 67.2951 930.478 68.0148 931.221 68.5779L932.429 66.9846C931.963 66.631 931.61 66.1841 931.365 65.6276L929.535 66.4349ZM931.252 68.6005C932 69.1247 932.884 69.4925 933.88 69.724L934.333 67.776C933.536 67.5908 932.9 67.3128 932.398 66.962L931.252 68.6005ZM933.885 69.7251C934.89 69.9536 936.019 70.0625 937.263 70.0625V68.0625C936.131 68.0625 935.156 67.963 934.328 67.7749L933.885 69.7251ZM937.263 70.0625C938.672 70.0625 939.894 69.8672 940.856 69.3992L939.981 67.6008C939.402 67.8828 938.52 68.0625 937.263 68.0625V70.0625ZM940.866 69.3944C941.781 68.9369 942.518 68.3215 942.956 67.5035L941.194 66.559C941.007 66.9077 940.64 67.2715 939.972 67.6056L940.866 69.3944ZM942.943 67.5274C943.353 66.8103 943.575 66.0471 943.575 65.25H941.575C941.575 65.6612 941.464 66.0856 941.207 66.5351L942.943 67.5274Z" fill="#FDC32D"/>
</g>
<g filter="url(#filter1_d_168_67)">
<path d="M353.069 16H-166L-152.069 22.5H339.539L306.631 75H150.807L137.392 83H311.275L353.069 16Z" fill="#D9D9D9"/>
<path d="M353.069 16H-166L-152.069 22.5H339.539L306.631 75H150.807L137.392 83H311.275L353.069 16Z" stroke="#00FFFF"/>
</g>
<g filter="url(#filter2_d_168_67)">
<path d="M1085.93 16H1605L1591.07 22.5H1100.08L1132.37 75H1288.19L1301.61 83H1127.73L1085.93 16Z" fill="#D9D9D9"/>
<path d="M1085.93 16H1605L1591.07 22.5H1100.08L1132.37 75H1288.19L1301.61 83H1127.73L1085.93 16Z" stroke="#00FFFF"/>
</g>
<g filter="url(#filter3_d_168_67)">
<path d="M353 82.5L394.206 17H404.046L363.455 82.5H353Z" fill="white"/>
<path d="M381.29 82.5L419.421 17H429.876L391.131 82.5H381.29Z" fill="white"/>
<path d="M353 82.5L394.206 17H404.046L363.455 82.5H353Z" stroke="#FF037D"/>
<path d="M381.29 82.5L419.421 17H429.876L391.131 82.5H381.29Z" stroke="#FF037D"/>
</g>
<g filter="url(#filter4_d_168_67)">
<path d="M1085.88 82.5L1044.67 17H1034.83L1075.42 82.5H1085.88Z" fill="white"/>
<path d="M1057.59 82.5L1019.46 17H1009L1047.75 82.5H1057.59Z" fill="white"/>
<path d="M1085.88 82.5L1044.67 17H1034.83L1075.42 82.5H1085.88Z" stroke="#FF037D"/>
<path d="M1057.59 82.5L1019.46 17H1009L1047.75 82.5H1057.59Z" stroke="#FF037D"/>
</g>
<defs>
<filter id="filter0_d_168_67" x="483.613" y="31.0938" width="476.587" height="53.4062" filterUnits="userSpaceOnUse" color-interpolation-filters="sRGB">
<feFlood flood-opacity="0" result="BackgroundImageFix"/>
<feColorMatrix in="SourceAlpha" type="matrix" values="0 0 0 0 0 0 0 0 0 0 0 0 0 0 0 0 0 0 127 0" result="hardAlpha"/>
<feOffset dx="1" dy="1"/>
<feGaussianBlur stdDeviation="4"/>
<feComposite in2="hardAlpha" operator="out"/>
<feColorMatrix type="matrix" values="0 0 0 0 0.992157 0 0 0 0 0.764706 0 0 0 0 0.176471 0 0 0 1 0"/>
<feBlend mode="normal" in2="BackgroundImageFix" result="effect1_dropShadow_168_67"/>
<feBlend mode="normal" in="SourceGraphic" in2="effect1_dropShadow_168_67" result="shape"/>
</filter>
<filter id="filter1_d_168_67" x="-181.211" y="0.5" width="552.181" height="100" filterUnits="userSpaceOnUse" color-interpolation-filters="sRGB">
<feFlood flood-opacity="0" result="BackgroundImageFix"/>
<feColorMatrix in="SourceAlpha" type="matrix" values="0 0 0 0 0 0 0 0 0 0 0 0 0 0 0 0 0 0 127 0" result="hardAlpha"/>
<feOffset dx="1" dy="1"/>
<feGaussianBlur stdDeviation="8"/>
<feComposite in2="hardAlpha" operator="out"/>
<feColorMatrix type="matrix" values="0 0 0 0 0 0 0 0 0 1 0 0 0 0 1 0 0 0 1 0"/>
<feBlend mode="normal" in2="BackgroundImageFix" result="effect1_dropShadow_168_67"/>
<feBlend mode="normal" in="SourceGraphic" in2="effect1_dropShadow_168_67" result="shape"/>
</filter>
<filter id="filter2_d_168_67" x="1070.03" y="0.5" width="552.181" height="100" filterUnits="userSpaceOnUse" color-interpolation-filters="sRGB">
<feFlood flood-opacity="0" result="BackgroundImageFix"/>
<feColorMatrix in="SourceAlpha" type="matrix" values="0 0 0 0 0 0 0 0 0 0 0 0 0 0 0 0 0 0 127 0" result="hardAlpha"/>
<feOffset dx="1" dy="1"/>
<feGaussianBlur stdDeviation="8"/>
<feComposite in2="hardAlpha" operator="out"/>
<feColorMatrix type="matrix" values="0 0 0 0 0 0 0 0 0 1 0 0 0 0 1 0 0 0 1 0"/>
<feBlend mode="normal" in2="BackgroundImageFix" result="effect1_dropShadow_168_67"/>
<feBlend mode="normal" in="SourceGraphic" in2="effect1_dropShadow_168_67" result="shape"/>
</filter>
<filter id="filter3_d_168_67" x="337.095" y="1.5" width="110.658" height="98.5" filterUnits="userSpaceOnUse" color-interpolation-filters="sRGB">
<feFlood flood-opacity="0" result="BackgroundImageFix"/>
<feColorMatrix in="SourceAlpha" type="matrix" values="0 0 0 0 0 0 0 0 0 0 0 0 0 0 0 0 0 0 127 0" result="hardAlpha"/>
<feOffset dx="1" dy="1"/>
<feGaussianBlur stdDeviation="8"/>
<feComposite in2="hardAlpha" operator="out"/>
<feColorMatrix type="matrix" values="0 0 0 0 1 0 0 0 0 0.0100001 0 0 0 0 0.491905 0 0 0 1 0"/>
<feBlend mode="normal" in2="BackgroundImageFix" result="effect1_dropShadow_168_67"/>
<feBlend mode="normal" in="SourceGraphic" in2="effect1_dropShadow_168_67" result="shape"/>
</filter>
<filter id="filter4_d_168_67" x="993.123" y="1.5" width="110.658" height="98.5" filterUnits="userSpaceOnUse" color-interpolation-filters="sRGB">
<feFlood flood-opacity="0" result="BackgroundImageFix"/>
<feColorMatrix in="SourceAlpha" type="matrix" values="0 0 0 0 0 0 0 0 0 0 0 0 0 0 0 0 0 0 127 0" result="hardAlpha"/>
<feOffset dx="1" dy="1"/>
<feGaussianBlur stdDeviation="8"/>
<feComposite in2="hardAlpha" operator="out"/>
<feColorMatrix type="matrix" values="0 0 0 0 1 0 0 0 0 0.0100001 0 0 0 0 0.491905 0 0 0 1 0"/>
<feBlend mode="normal" in2="BackgroundImageFix" result="effect1_dropShadow_168_67"/>
<feBlend mode="normal" in="SourceGraphic" in2="effect1_dropShadow_168_67" result="shape"/>
</filter>
</defs>
</svg>
