<svg width="1440" height="101" viewBox="0 0 1440 101" fill="none" xmlns="http://www.w3.org/2000/svg">
<g filter="url(#filter0_d_168_66)">
<path d="M518.425 52.0625V53.5625C518.425 56.3333 518.008 58.8229 517.175 61.0312C516.363 63.2396 515.206 65.125 513.706 66.6875C512.206 68.25 510.415 69.4479 508.331 70.2812C506.269 71.0938 503.988 71.5 501.488 71.5C498.988 71.5 496.696 71.0938 494.613 70.2812C492.55 69.4479 490.758 68.25 489.238 66.6875C487.717 65.125 486.54 63.2396 485.706 61.0312C484.873 58.8229 484.456 56.3333 484.456 53.5625V52.0625C484.456 49.2708 484.863 46.7812 485.675 44.5938C486.508 42.3854 487.675 40.5 489.175 38.9375C490.696 37.3542 492.488 36.1562 494.55 35.3438C496.633 34.5104 498.925 34.0938 501.425 34.0938C503.925 34.0938 506.206 34.5104 508.269 35.3438C510.352 36.1562 512.154 37.3542 513.675 38.9375C515.196 40.5 516.363 42.3854 517.175 44.5938C518.008 46.7812 518.425 49.2708 518.425 52.0625ZM509.394 53.5625V52C509.394 50.25 509.206 48.7083 508.831 47.375C508.477 46.0208 507.956 44.8854 507.269 43.9688C506.602 43.0312 505.769 42.3229 504.769 41.8438C503.79 41.3438 502.675 41.0938 501.425 41.0938C500.154 41.0938 499.019 41.3438 498.019 41.8438C497.04 42.3229 496.217 43.0312 495.55 43.9688C494.883 44.8854 494.373 46.0208 494.019 47.375C493.685 48.7083 493.519 50.25 493.519 52V53.5625C493.519 55.2917 493.685 56.8333 494.019 58.1875C494.373 59.5417 494.894 60.6979 495.581 61.6562C496.269 62.5938 497.102 63.3125 498.081 63.8125C499.081 64.2917 500.217 64.5312 501.488 64.5312C502.738 64.5312 503.852 64.2917 504.831 63.8125C505.81 63.3125 506.633 62.5938 507.3 61.6562C507.988 60.6979 508.508 59.5417 508.863 58.1875C509.217 56.8333 509.394 55.2917 509.394 53.5625ZM551.419 34.5938H560.45V58.2812C560.45 61.1146 559.804 63.5208 558.513 65.5C557.242 67.4792 555.46 68.9792 553.169 70C550.898 71 548.231 71.5 545.169 71.5C542.148 71.5 539.481 71 537.169 70C534.877 68.9792 533.085 67.4792 531.794 65.5C530.502 63.5208 529.856 61.1146 529.856 58.2812V34.5938H538.856V58.2812C538.856 59.7188 539.106 60.9062 539.606 61.8438C540.106 62.7604 540.825 63.4375 541.763 63.875C542.7 64.2917 543.835 64.5 545.169 64.5C546.523 64.5 547.658 64.2917 548.575 63.875C549.492 63.4375 550.19 62.7604 550.669 61.8438C551.169 60.9062 551.419 59.7188 551.419 58.2812V34.5938ZM572.944 34.5938H588.163C590.413 34.5938 592.444 34.8333 594.256 35.3125C596.069 35.7708 597.61 36.4583 598.881 37.375C600.173 38.2917 601.163 39.4375 601.85 40.8125C602.538 42.1667 602.881 43.7396 602.881 45.5312C602.881 47.6562 602.527 49.4271 601.819 50.8438C601.11 52.2604 600.131 53.4167 598.881 54.3125C597.631 55.2083 596.183 55.9583 594.538 56.5625L591.538 58.3125H578.6L578.538 51.2812H588.225C589.475 51.2812 590.517 51.0938 591.35 50.7188C592.183 50.3229 592.808 49.7604 593.225 49.0312C593.642 48.3021 593.85 47.4375 593.85 46.4375C593.85 45.4167 593.631 44.5521 593.194 43.8438C592.756 43.1354 592.11 42.5938 591.256 42.2188C590.423 41.8438 589.392 41.6562 588.163 41.6562H581.975V71H572.944V34.5938ZM594.538 71L585.819 54.9375L595.381 54.8438L604.256 70.625V71H594.538ZM657.9 61.25C657.9 60.6667 657.785 60.1354 657.556 59.6562C657.327 59.1562 656.942 58.7083 656.4 58.3125C655.879 57.9167 655.171 57.5417 654.275 57.1875C653.379 56.8333 652.265 56.5 650.931 56.1875C648.64 55.6458 646.65 55.0521 644.963 54.4062C643.296 53.7396 641.91 52.9792 640.806 52.125C639.723 51.25 638.91 50.2083 638.369 49C637.827 47.7917 637.556 46.375 637.556 44.75C637.556 43.1875 637.9 41.75 638.588 40.4375C639.275 39.125 640.244 38 641.494 37.0625C642.744 36.125 644.223 35.3958 645.931 34.875C647.64 34.3542 649.504 34.0938 651.525 34.0938C654.463 34.0938 657.056 34.5521 659.306 35.4688C661.577 36.3854 663.348 37.6875 664.619 39.375C665.89 41.0417 666.525 43.0521 666.525 45.4062H657.525C657.525 44.5312 657.285 43.7292 656.806 43C656.348 42.2708 655.681 41.6875 654.806 41.25C653.931 40.7917 652.848 40.5625 651.556 40.5625C650.306 40.5625 649.275 40.7604 648.463 41.1562C647.65 41.5312 647.046 42.0208 646.65 42.625C646.275 43.2083 646.088 43.8125 646.088 44.4375C646.088 44.9583 646.202 45.4375 646.431 45.875C646.681 46.3125 647.067 46.7188 647.588 47.0938C648.129 47.4479 648.827 47.7917 649.681 48.125C650.556 48.4375 651.608 48.75 652.838 49.0625C655.129 49.5625 657.119 50.1562 658.806 50.8438C660.515 51.5104 661.931 52.3125 663.056 53.25C664.202 54.1875 665.056 55.3021 665.619 56.5938C666.181 57.8646 666.463 59.3333 666.463 61C666.463 62.6667 666.119 64.1562 665.431 65.4688C664.765 66.7604 663.796 67.8542 662.525 68.75C661.275 69.6458 659.765 70.3333 657.994 70.8125C656.244 71.2708 654.285 71.5 652.119 71.5C650.181 71.5 648.275 71.2708 646.4 70.8125C644.525 70.3542 642.827 69.6458 641.306 68.6875C639.785 67.7083 638.567 66.4583 637.65 64.9375C636.754 63.4167 636.306 61.5938 636.306 59.4688H645.338C645.338 60.4688 645.483 61.3229 645.775 62.0312C646.088 62.7396 646.546 63.3229 647.15 63.7812C647.775 64.2188 648.535 64.5417 649.431 64.75C650.348 64.9583 651.4 65.0625 652.588 65.0625C653.921 65.0625 654.973 64.875 655.744 64.5C656.535 64.1042 657.088 63.6146 657.4 63.0312C657.733 62.4479 657.9 61.8542 657.9 61.25ZM693.831 58.8438H684.019V51.8125H693.831C695.206 51.8125 696.342 51.6146 697.238 51.2188C698.133 50.8021 698.79 50.25 699.206 49.5625C699.644 48.8542 699.863 48.0521 699.863 47.1562C699.863 46.1771 699.644 45.2708 699.206 44.4375C698.79 43.6042 698.133 42.9375 697.238 42.4375C696.342 41.9167 695.206 41.6562 693.831 41.6562H687.363V71H678.363V34.5938H693.831C696.956 34.5938 699.633 35.1354 701.863 36.2188C704.113 37.3021 705.831 38.7812 707.019 40.6562C708.227 42.5312 708.831 44.6771 708.831 47.0938C708.831 48.8438 708.488 50.4479 707.8 51.9062C707.133 53.3438 706.144 54.5833 704.831 55.625C703.54 56.6667 701.967 57.4688 700.113 58.0312C698.279 58.5729 696.185 58.8438 693.831 58.8438ZM753.325 52.0625V53.5625C753.325 56.3333 752.908 58.8229 752.075 61.0312C751.262 63.2396 750.106 65.125 748.606 66.6875C747.106 68.25 745.315 69.4479 743.231 70.2812C741.169 71.0938 738.887 71.5 736.387 71.5C733.887 71.5 731.596 71.0938 729.512 70.2812C727.45 69.4479 725.658 68.25 724.137 66.6875C722.617 65.125 721.44 63.2396 720.606 61.0312C719.773 58.8229 719.356 56.3333 719.356 53.5625V52.0625C719.356 49.2708 719.762 46.7812 720.575 44.5938C721.408 42.3854 722.575 40.5 724.075 38.9375C725.596 37.3542 727.387 36.1562 729.45 35.3438C731.533 34.5104 733.825 34.0938 736.325 34.0938C738.825 34.0938 741.106 34.5104 743.169 35.3438C745.252 36.1562 747.054 37.3542 748.575 38.9375C750.096 40.5 751.262 42.3854 752.075 44.5938C752.908 46.7812 753.325 49.2708 753.325 52.0625ZM744.294 53.5625V52C744.294 50.25 744.106 48.7083 743.731 47.375C743.377 46.0208 742.856 44.8854 742.169 43.9688C741.502 43.0312 740.669 42.3229 739.669 41.8438C738.69 41.3438 737.575 41.0938 736.325 41.0938C735.054 41.0938 733.919 41.3438 732.919 41.8438C731.94 42.3229 731.117 43.0312 730.45 43.9688C729.783 44.8854 729.273 46.0208 728.919 47.375C728.585 48.7083 728.419 50.25 728.419 52V53.5625C728.419 55.2917 728.585 56.8333 728.919 58.1875C729.273 59.5417 729.794 60.6979 730.481 61.6562C731.169 62.5938 732.002 63.3125 732.981 63.8125C733.981 64.2917 735.117 64.5312 736.387 64.5312C737.637 64.5312 738.752 64.2917 739.731 63.8125C740.71 63.3125 741.533 62.5938 742.2 61.6562C742.887 60.6979 743.408 59.5417 743.762 58.1875C744.117 56.8333 744.294 55.2917 744.294 53.5625ZM797.35 34.5938V71H788.319L773.912 47.8125V71H764.912V34.5938H773.912L788.319 57.7812V34.5938H797.35ZM830.312 61.25C830.312 60.6667 830.198 60.1354 829.969 59.6562C829.74 59.1562 829.354 58.7083 828.812 58.3125C828.292 57.9167 827.583 57.5417 826.688 57.1875C825.792 56.8333 824.677 56.5 823.344 56.1875C821.052 55.6458 819.062 55.0521 817.375 54.4062C815.708 53.7396 814.323 52.9792 813.219 52.125C812.135 51.25 811.323 50.2083 810.781 49C810.24 47.7917 809.969 46.375 809.969 44.75C809.969 43.1875 810.312 41.75 811 40.4375C811.688 39.125 812.656 38 813.906 37.0625C815.156 36.125 816.635 35.3958 818.344 34.875C820.052 34.3542 821.917 34.0938 823.938 34.0938C826.875 34.0938 829.469 34.5521 831.719 35.4688C833.99 36.3854 835.76 37.6875 837.031 39.375C838.302 41.0417 838.938 43.0521 838.938 45.4062H829.938C829.938 44.5312 829.698 43.7292 829.219 43C828.76 42.2708 828.094 41.6875 827.219 41.25C826.344 40.7917 825.26 40.5625 823.969 40.5625C822.719 40.5625 821.688 40.7604 820.875 41.1562C820.062 41.5312 819.458 42.0208 819.062 42.625C818.688 43.2083 818.5 43.8125 818.5 44.4375C818.5 44.9583 818.615 45.4375 818.844 45.875C819.094 46.3125 819.479 46.7188 820 47.0938C820.542 47.4479 821.24 47.7917 822.094 48.125C822.969 48.4375 824.021 48.75 825.25 49.0625C827.542 49.5625 829.531 50.1562 831.219 50.8438C832.927 51.5104 834.344 52.3125 835.469 53.25C836.615 54.1875 837.469 55.3021 838.031 56.5938C838.594 57.8646 838.875 59.3333 838.875 61C838.875 62.6667 838.531 64.1562 837.844 65.4688C837.177 66.7604 836.208 67.8542 834.938 68.75C833.688 69.6458 832.177 70.3333 830.406 70.8125C828.656 71.2708 826.698 71.5 824.531 71.5C822.594 71.5 820.688 71.2708 818.812 70.8125C816.938 70.3542 815.24 69.6458 813.719 68.6875C812.198 67.7083 810.979 66.4583 810.062 64.9375C809.167 63.4167 808.719 61.5938 808.719 59.4688H817.75C817.75 60.4688 817.896 61.3229 818.188 62.0312C818.5 62.7396 818.958 63.3229 819.562 63.7812C820.188 64.2188 820.948 64.5417 821.844 64.75C822.76 64.9583 823.812 65.0625 825 65.0625C826.333 65.0625 827.385 64.875 828.156 64.5C828.948 64.1042 829.5 63.6146 829.812 63.0312C830.146 62.4479 830.312 61.8542 830.312 61.25ZM877.525 63.9688V71H856.588V63.9688H877.525ZM859.775 34.5938V71H850.775V34.5938H859.775ZM874.838 48.6562V55.6875H856.588V48.6562H874.838ZM877.556 34.5938V41.6562H856.588V34.5938H877.556ZM887.956 34.5938H903.175C905.425 34.5938 907.456 34.8333 909.269 35.3125C911.081 35.7708 912.623 36.4583 913.894 37.375C915.185 38.2917 916.175 39.4375 916.862 40.8125C917.55 42.1667 917.894 43.7396 917.894 45.5312C917.894 47.6562 917.54 49.4271 916.831 50.8438C916.123 52.2604 915.144 53.4167 913.894 54.3125C912.644 55.2083 911.196 55.9583 909.55 56.5625L906.55 58.3125H893.612L893.55 51.2812H903.237C904.487 51.2812 905.529 51.0938 906.362 50.7188C907.196 50.3229 907.821 49.7604 908.237 49.0312C908.654 48.3021 908.862 47.4375 908.862 46.4375C908.862 45.4167 908.644 44.5521 908.206 43.8438C907.769 43.1354 907.123 42.5938 906.269 42.2188C905.435 41.8438 904.404 41.6562 903.175 41.6562H896.987V71H887.956V34.5938ZM909.55 71L900.831 54.9375L910.394 54.8438L919.269 70.625V71H909.55ZM950.575 61.25C950.575 60.6667 950.46 60.1354 950.231 59.6562C950.002 59.1562 949.617 58.7083 949.075 58.3125C948.554 57.9167 947.846 57.5417 946.95 57.1875C946.054 56.8333 944.94 56.5 943.606 56.1875C941.315 55.6458 939.325 55.0521 937.638 54.4062C935.971 53.7396 934.585 52.9792 933.481 52.125C932.398 51.25 931.585 50.2083 931.044 49C930.502 47.7917 930.231 46.375 930.231 44.75C930.231 43.1875 930.575 41.75 931.263 40.4375C931.95 39.125 932.919 38 934.169 37.0625C935.419 36.125 936.898 35.3958 938.606 34.875C940.315 34.3542 942.179 34.0938 944.2 34.0938C947.138 34.0938 949.731 34.5521 951.981 35.4688C954.252 36.3854 956.023 37.6875 957.294 39.375C958.565 41.0417 959.2 43.0521 959.2 45.4062H950.2C950.2 44.5312 949.96 43.7292 949.481 43C949.023 42.2708 948.356 41.6875 947.481 41.25C946.606 40.7917 945.523 40.5625 944.231 40.5625C942.981 40.5625 941.95 40.7604 941.138 41.1562C940.325 41.5312 939.721 42.0208 939.325 42.625C938.95 43.2083 938.763 43.8125 938.763 44.4375C938.763 44.9583 938.877 45.4375 939.106 45.875C939.356 46.3125 939.742 46.7188 940.263 47.0938C940.804 47.4479 941.502 47.7917 942.356 48.125C943.231 48.4375 944.283 48.75 945.513 49.0625C947.804 49.5625 949.794 50.1562 951.481 50.8438C953.19 51.5104 954.606 52.3125 955.731 53.25C956.877 54.1875 957.731 55.3021 958.294 56.5938C958.856 57.8646 959.138 59.3333 959.138 61C959.138 62.6667 958.794 64.1562 958.106 65.4688C957.44 66.7604 956.471 67.8542 955.2 68.75C953.95 69.6458 952.44 70.3333 950.669 70.8125C948.919 71.2708 946.96 71.5 944.794 71.5C942.856 71.5 940.95 71.2708 939.075 70.8125C937.2 70.3542 935.502 69.6458 933.981 68.6875C932.46 67.7083 931.242 66.4583 930.325 64.9375C929.429 63.4167 928.981 61.5938 928.981 59.4688H938.013C938.013 60.4688 938.158 61.3229 938.45 62.0312C938.763 62.7396 939.221 63.3229 939.825 63.7812C940.45 64.2188 941.21 64.5417 942.106 64.75C943.023 64.9583 944.075 65.0625 945.263 65.0625C946.596 65.0625 947.648 64.875 948.419 64.5C949.21 64.1042 949.763 63.6146 950.075 63.0312C950.408 62.4479 950.575 61.8542 950.575 61.25Z" fill="white"/>
<path d="M517.175 61.0312L516.239 60.6782L516.237 60.686L517.175 61.0312ZM508.331 70.2812L508.698 71.2117L508.703 71.2097L508.331 70.2812ZM494.613 70.2812L494.238 71.2085L494.249 71.2129L494.613 70.2812ZM489.238 66.6875L488.521 67.385L489.238 66.6875ZM485.675 44.5938L484.739 44.2407L484.738 44.2456L485.675 44.5938ZM489.175 38.9375L488.454 38.2448L488.454 38.245L489.175 38.9375ZM494.55 35.3438L494.917 36.2742L494.921 36.2722L494.55 35.3438ZM508.269 35.3438L507.894 36.271L507.905 36.2754L508.269 35.3438ZM513.675 38.9375L512.954 39.6302L512.958 39.635L513.675 38.9375ZM517.175 44.5938L516.236 44.9391L516.241 44.9497L517.175 44.5938ZM508.831 47.375L507.864 47.628L507.866 47.6369L507.869 47.6457L508.831 47.375ZM507.269 43.9688L506.454 44.5483L506.461 44.5586L506.469 44.5687L507.269 43.9688ZM504.769 41.8438L504.314 42.7344L504.325 42.7401L504.337 42.7456L504.769 41.8438ZM498.019 41.8438L498.458 42.742L498.466 42.7382L498.019 41.8438ZM495.55 43.9688L496.359 44.557L496.365 44.5483L495.55 43.9688ZM494.019 47.375L493.051 47.122L493.049 47.1325L494.019 47.375ZM494.019 58.1875L493.048 58.4265L493.049 58.4335L493.051 58.4405L494.019 58.1875ZM495.581 61.6562L494.769 62.2392L494.775 62.2476L495.581 61.6562ZM498.081 63.8125L497.626 64.7031L497.638 64.7089L497.649 64.7143L498.081 63.8125ZM504.831 63.8125L505.271 64.7107L505.278 64.707L505.286 64.7031L504.831 63.8125ZM507.3 61.6562L506.487 61.0733L506.485 61.0767L507.3 61.6562ZM517.425 52.0625V53.5625H519.425V52.0625H517.425ZM517.425 53.5625C517.425 56.2333 517.023 58.6005 516.239 60.6782L518.111 61.3843C518.993 59.0454 519.425 56.4334 519.425 53.5625H517.425ZM516.237 60.686C515.467 62.7761 514.381 64.5403 512.985 65.995L514.428 67.38C516.031 65.7097 517.258 63.7031 518.113 61.3765L516.237 60.686ZM512.985 65.995C511.587 67.4511 509.916 68.5703 507.96 69.3528L508.703 71.2097C510.913 70.3255 512.826 69.0489 514.428 67.38L512.985 65.995ZM507.965 69.3508C506.033 70.1119 503.878 70.5 501.488 70.5V72.5C504.097 72.5 506.505 72.0756 508.698 71.2117L507.965 69.3508ZM501.488 70.5C499.097 70.5 496.93 70.1119 494.976 69.3496L494.249 71.2129C496.461 72.0756 498.878 72.5 501.488 72.5V70.5ZM494.987 69.3541C493.051 68.5717 491.376 67.451 489.954 65.99L488.521 67.385C490.141 69.049 492.049 70.3242 494.238 71.2084L494.987 69.3541ZM489.954 65.99C488.537 64.5339 487.431 62.7686 486.642 60.6782L484.771 61.3843C485.648 63.7106 486.896 65.7161 488.521 67.385L489.954 65.99ZM486.642 60.6782C485.858 58.6005 485.456 56.2333 485.456 53.5625H483.456C483.456 56.4334 483.888 59.0454 484.771 61.3843L486.642 60.6782ZM485.456 53.5625V52.0625H483.456V53.5625H485.456ZM485.456 52.0625C485.456 49.367 485.849 46.9985 486.612 44.9419L484.738 44.2456C483.876 46.564 483.456 49.1747 483.456 52.0625H485.456ZM486.611 44.9468C487.401 42.8535 488.498 41.0866 489.896 39.63L488.454 38.245C486.852 39.9134 485.616 41.9173 484.739 44.2407L486.611 44.9468ZM489.896 39.6302C491.316 38.1518 492.987 37.0344 494.917 36.2742L494.183 34.4133C491.988 35.2781 490.075 36.5566 488.454 38.2448L489.896 39.6302ZM494.921 36.2722C496.874 35.4912 499.038 35.0938 501.425 35.0938V33.0938C498.812 33.0938 496.393 33.5296 494.179 34.4153L494.921 36.2722ZM501.425 35.0938C503.812 35.0938 505.965 35.4913 507.894 36.2709L508.643 34.4166C506.448 33.5295 504.038 33.0938 501.425 33.0938V35.0938ZM507.905 36.2754C509.856 37.0362 511.535 38.1535 512.954 39.6302L514.396 38.2448C512.773 36.5548 510.848 35.2763 508.632 34.4121L507.905 36.2754ZM512.958 39.635C514.374 41.0892 515.469 42.8518 516.237 44.939L518.113 44.2485C517.256 41.919 516.018 39.9108 514.392 38.24L512.958 39.635ZM516.241 44.9497C517.023 47.004 517.425 49.3696 517.425 52.0625H519.425C519.425 49.172 518.994 46.5585 518.109 44.2378L516.241 44.9497ZM510.394 53.5625V52H508.394V53.5625H510.394ZM510.394 52C510.394 50.1813 510.199 48.5453 509.794 47.1043L507.869 47.6457C508.213 48.8714 508.394 50.3187 508.394 52H510.394ZM509.799 47.122C509.419 45.6694 508.849 44.4093 508.069 43.3687L506.469 44.5687C507.063 45.3615 507.535 46.3723 507.864 47.628L509.799 47.122ZM508.084 43.3892C507.323 42.319 506.36 41.4971 505.201 40.9419L504.337 42.7456C505.178 43.1487 505.882 43.7435 506.454 44.5483L508.084 43.3892ZM505.224 40.9531C504.085 40.3719 502.811 40.0938 501.425 40.0938V42.0938C502.539 42.0938 503.494 42.3156 504.314 42.7344L505.224 40.9531ZM501.425 40.0938C500.02 40.0938 498.728 40.3709 497.572 40.9493L498.466 42.7382C499.309 42.3166 500.288 42.0938 501.425 42.0938V40.0938ZM497.579 40.9455C496.442 41.5021 495.493 42.3236 494.735 43.3892L496.365 44.5483C496.941 43.7389 497.637 43.1438 498.458 42.742L497.579 40.9455ZM494.741 43.3806C493.986 44.4187 493.43 45.6746 493.051 47.122L494.986 47.628C495.316 46.3671 495.78 45.3521 496.359 44.5569L494.741 43.3806ZM493.049 47.1325C492.691 48.5632 492.519 50.1893 492.519 52H494.519C494.519 50.3107 494.68 48.8534 494.989 47.6175L493.049 47.1325ZM492.519 52V53.5625H494.519V52H492.519ZM492.519 53.5625C492.519 55.3538 492.691 56.9781 493.048 58.4265L494.99 57.9485C494.68 56.6886 494.519 55.2295 494.519 53.5625H492.519ZM493.051 58.4405C493.431 59.8916 493.998 61.1646 494.769 62.2392L496.394 61.0733C495.79 60.2312 495.315 59.1918 494.986 57.9345L493.051 58.4405ZM494.775 62.2476C495.549 63.3035 496.5 64.1281 497.626 64.7031L498.536 62.9219C497.704 62.4969 496.988 61.884 496.388 61.0649L494.775 62.2476ZM497.649 64.7143C498.802 65.2669 500.089 65.5312 501.488 65.5312V63.5312C500.344 63.5312 499.36 63.3164 498.513 62.9107L497.649 64.7143ZM501.488 65.5312C502.867 65.5312 504.136 65.266 505.271 64.7107L504.392 62.9143C503.568 63.3173 502.608 63.5312 501.488 63.5312V65.5312ZM505.286 64.7031C506.415 64.1265 507.359 63.2982 508.115 62.2358L506.485 61.0767C505.907 61.8893 505.206 62.4985 504.376 62.9219L505.286 64.7031ZM508.113 62.2392C508.883 61.1646 509.45 59.8916 509.83 58.4405L507.895 57.9345C507.566 59.1918 507.092 60.2312 506.487 61.0733L508.113 62.2392ZM509.83 58.4405C510.21 56.9871 510.394 55.3579 510.394 53.5625H508.394C508.394 55.2254 508.223 56.6796 507.895 57.9345L509.83 58.4405ZM551.419 34.5938V33.5938H550.419V34.5938H551.419ZM560.45 34.5938H561.45V33.5938H560.45V34.5938ZM558.513 65.5L557.675 64.9534L557.671 64.9597L558.513 65.5ZM553.169 70L553.572 70.9152L553.576 70.9135L553.169 70ZM537.169 70L536.762 70.9135L536.772 70.9179L537.169 70ZM531.794 65.5L530.956 66.0465L531.794 65.5ZM529.856 34.5938V33.5938H528.856V34.5938H529.856ZM538.856 34.5938H539.856V33.5938H538.856V34.5938ZM539.606 61.8438L538.724 62.3144L538.728 62.3226L539.606 61.8438ZM541.763 63.875L541.34 64.7812L541.348 64.7851L541.356 64.7888L541.763 63.875ZM548.575 63.875L548.989 64.7854L548.997 64.7815L549.006 64.7775L548.575 63.875ZM550.669 61.8438L549.786 61.3731L549.783 61.3805L550.669 61.8438ZM551.419 35.5938H560.45V33.5938H551.419V35.5938ZM559.45 34.5938V58.2812H561.45V34.5938H559.45ZM559.45 58.2812C559.45 60.9596 558.841 63.1667 557.675 64.9535L559.35 66.0465C560.767 63.8749 561.45 61.2696 561.45 58.2812H559.45ZM557.671 64.9597C556.513 66.7637 554.888 68.1395 552.762 69.0865L553.576 70.9135C556.033 69.8188 557.971 68.1947 559.354 66.0403L557.671 64.9597ZM552.766 69.0848C550.648 70.0174 548.124 70.5 545.169 70.5V72.5C548.338 72.5 551.148 71.9826 553.572 70.9152L552.766 69.0848ZM545.169 70.5C542.258 70.5 539.731 70.0183 537.566 69.0821L536.772 70.9179C539.232 71.9817 542.038 72.5 545.169 72.5V70.5ZM537.576 69.0865C535.448 68.139 533.811 66.7613 532.631 64.9535L530.956 66.0465C532.36 68.197 534.306 69.8194 536.762 70.9135L537.576 69.0865ZM532.631 64.9535C531.465 63.1667 530.856 60.9596 530.856 58.2812H528.856C528.856 61.2696 529.539 63.8749 530.956 66.0465L532.631 64.9535ZM530.856 58.2812V34.5938H528.856V58.2812H530.856ZM529.856 35.5938H538.856V33.5938H529.856V35.5938ZM537.856 34.5938V58.2812H539.856V34.5938H537.856ZM537.856 58.2812C537.856 59.8275 538.124 61.19 538.724 62.3143L540.489 61.3732C540.088 60.6225 539.856 59.61 539.856 58.2812H537.856ZM538.728 62.3226C539.33 63.4247 540.207 64.2525 541.34 64.7812L542.185 62.9688C541.443 62.6225 540.883 62.0961 540.484 61.3649L538.728 62.3226ZM541.356 64.7888C542.454 65.2766 543.736 65.5 545.169 65.5V63.5C543.935 63.5 542.946 63.3067 542.169 62.9612L541.356 64.7888ZM545.169 65.5C546.619 65.5 547.906 65.2778 548.989 64.7854L548.161 62.9646C547.411 63.3056 546.427 63.5 545.169 63.5V65.5ZM549.006 64.7775C550.122 64.2449 550.978 63.4117 551.555 62.307L549.783 61.3805C549.402 62.1091 548.862 62.6301 548.144 62.9725L549.006 64.7775ZM551.551 62.3143C552.151 61.19 552.419 59.8275 552.419 58.2812H550.419C550.419 59.61 550.187 60.6225 549.786 61.3732L551.551 62.3143ZM552.419 58.2812V34.5938H550.419V58.2812H552.419ZM572.944 34.5938V33.5938H571.944V34.5938H572.944ZM594.256 35.3125L594.001 36.2793L594.011 36.282L594.256 35.3125ZM598.881 37.375L598.296 38.1861L598.303 38.1905L598.881 37.375ZM601.85 40.8125L600.956 41.2597L600.958 41.2652L601.85 40.8125ZM601.819 50.8438L600.924 50.3965L601.819 50.8438ZM598.881 54.3125L598.299 53.4997L598.881 54.3125ZM594.538 56.5625L594.193 55.6238L594.11 55.6542L594.034 55.6987L594.538 56.5625ZM591.538 58.3125V59.3125H591.808L592.041 59.1763L591.538 58.3125ZM578.6 58.3125L577.6 58.3214L577.609 59.3125H578.6V58.3125ZM578.538 51.2812V50.2812H577.529L577.538 51.2901L578.538 51.2812ZM591.35 50.7188L591.76 51.6307L591.77 51.6264L591.779 51.622L591.35 50.7188ZM591.256 42.2188L590.846 43.1307L590.854 43.1344L591.256 42.2188ZM581.975 41.6562V40.6562H580.975V41.6562H581.975ZM581.975 71V72H582.975V71H581.975ZM572.944 71H571.944V72H572.944V71ZM594.538 71L593.659 71.4771L593.942 72H594.538V71ZM585.819 54.9375L585.809 53.9375L584.147 53.9538L584.94 55.4146L585.819 54.9375ZM595.381 54.8438L596.253 54.3536L595.963 53.838L595.371 53.8438L595.381 54.8438ZM604.256 70.625H605.256V70.3631L605.128 70.1348L604.256 70.625ZM604.256 71V72H605.256V71H604.256ZM572.944 35.5938H588.163V33.5938H572.944V35.5938ZM588.163 35.5938C590.343 35.5938 592.286 35.826 594.001 36.2793L594.512 34.3457C592.601 33.8406 590.482 33.5938 588.163 33.5938V35.5938ZM594.011 36.282C595.724 36.7152 597.145 37.3559 598.296 38.186L599.466 36.564C598.075 35.5608 596.413 34.8264 594.501 34.343L594.011 36.282ZM598.303 38.1905C599.465 39.0152 600.344 40.0361 600.956 41.2597L602.744 40.3653C601.981 38.8389 600.881 37.5682 599.46 36.5595L598.303 38.1905ZM600.958 41.2652C601.563 42.456 601.881 43.8687 601.881 45.5312H603.881C603.881 43.6104 603.512 41.8774 602.742 40.3598L600.958 41.2652ZM601.881 45.5312C601.881 47.5516 601.544 49.1578 600.924 50.3965L602.713 51.291C603.51 49.6963 603.881 47.7609 603.881 45.5312H601.881ZM600.924 50.3965C600.286 51.6723 599.413 52.7015 598.299 53.4997L599.464 55.1253C600.85 54.1319 601.934 52.8485 602.713 51.291L600.924 50.3965ZM598.299 53.4997C597.131 54.3363 595.766 55.0464 594.193 55.6238L594.882 57.5012C596.601 56.8703 598.131 56.0804 599.464 55.1253L598.299 53.4997ZM594.034 55.6987L591.034 57.4487L592.041 59.1763L595.041 57.4263L594.034 55.6987ZM591.538 57.3125H578.6V59.3125H591.538V57.3125ZM579.6 58.3036L579.537 51.2724L577.538 51.2901L577.6 58.3214L579.6 58.3036ZM578.538 52.2812H588.225V50.2812H578.538V52.2812ZM588.225 52.2812C589.568 52.2812 590.76 52.0809 591.76 51.6307L590.94 49.8068C590.274 50.1066 589.383 50.2812 588.225 50.2812V52.2812ZM591.779 51.622C592.778 51.1476 593.565 50.4514 594.093 49.5274L592.357 48.5351C592.051 49.0694 591.589 49.4983 590.921 49.8155L591.779 51.622ZM594.093 49.5274C594.611 48.6206 594.85 47.5783 594.85 46.4375H592.85C592.85 47.2967 592.672 47.9835 592.357 48.5351L594.093 49.5274ZM594.85 46.4375C594.85 45.273 594.6 44.2168 594.045 43.3183L592.343 44.3692C592.663 44.8874 592.85 45.5603 592.85 46.4375H594.85ZM594.045 43.3183C593.488 42.4169 592.675 41.7494 591.658 41.3031L590.854 43.1344C591.546 43.4381 592.025 43.8539 592.343 44.3692L594.045 43.3183ZM591.667 41.3068C590.668 40.8574 589.487 40.6562 588.163 40.6562V42.6562C589.296 42.6562 590.178 42.8301 590.846 43.1307L591.667 41.3068ZM588.163 40.6562H581.975V42.6562H588.163V40.6562ZM580.975 41.6562V71H582.975V41.6562H580.975ZM581.975 70H572.944V72H581.975V70ZM573.944 71V34.5938H571.944V71H573.944ZM595.416 70.5229L586.698 54.4604L584.94 55.4146L593.659 71.4771L595.416 70.5229ZM585.829 55.9375L595.391 55.8437L595.371 53.8438L585.809 53.9375L585.829 55.9375ZM594.51 55.3339L603.385 71.1152L605.128 70.1348L596.253 54.3536L594.51 55.3339ZM603.256 70.625V71H605.256V70.625H603.256ZM604.256 70H594.538V72H604.256V70ZM657.556 59.6562L656.647 60.0729L656.651 60.0803L656.654 60.0877L657.556 59.6562ZM656.4 58.3125L655.795 59.1087L655.802 59.1143L655.81 59.1199L656.4 58.3125ZM650.931 56.1875L650.701 57.1607L650.703 57.1611L650.931 56.1875ZM644.963 54.4062L644.591 55.3347L644.598 55.3375L644.605 55.3402L644.963 54.4062ZM640.806 52.125L640.178 52.9029L640.186 52.9095L640.194 52.916L640.806 52.125ZM638.369 49L637.456 49.4091L638.369 49ZM659.306 35.4688L658.929 36.3948L658.932 36.396L659.306 35.4688ZM664.619 39.375L663.82 39.9766L663.824 39.9813L664.619 39.375ZM666.525 45.4062V46.4062H667.525V45.4062H666.525ZM657.525 45.4062H656.525V46.4062H657.525V45.4062ZM656.806 43L655.96 43.5322L655.965 43.5407L655.971 43.5492L656.806 43ZM654.806 41.25L654.342 42.1358L654.351 42.1402L654.359 42.1444L654.806 41.25ZM648.463 41.1562L648.882 42.0642L648.891 42.0598L648.9 42.0552L648.463 41.1562ZM646.65 42.625L645.814 42.077L645.809 42.0842L646.65 42.625ZM646.431 45.875L645.545 46.339L645.554 46.3552L645.563 46.3711L646.431 45.875ZM647.588 47.0938L647.003 47.9053L647.021 47.9184L647.04 47.9307L647.588 47.0938ZM649.681 48.125L649.318 49.0566L649.331 49.0619L649.345 49.0667L649.681 48.125ZM652.838 49.0625L652.591 50.0317L652.608 50.0359L652.624 50.0395L652.838 49.0625ZM658.806 50.8438L658.429 51.7698L658.436 51.7726L658.443 51.7753L658.806 50.8438ZM663.056 53.25L662.416 54.0183L662.423 54.024L663.056 53.25ZM665.619 56.5938L664.702 56.993L664.704 56.9985L665.619 56.5938ZM665.431 65.4688L664.545 65.0047L664.543 65.0101L665.431 65.4688ZM662.525 68.75L661.949 67.9326L661.942 67.9372L662.525 68.75ZM657.994 70.8125L658.247 71.7799L658.255 71.7778L657.994 70.8125ZM641.306 68.6875L640.765 69.5283L640.773 69.5335L641.306 68.6875ZM637.65 64.9375L636.788 65.4451L636.794 65.4537L637.65 64.9375ZM636.306 59.4688V58.4688H635.306V59.4688H636.306ZM645.338 59.4688H646.338V58.4688H645.338V59.4688ZM645.775 62.0312L644.85 62.412L644.855 62.4235L644.86 62.4349L645.775 62.0312ZM647.15 63.7812L646.546 64.5779L646.561 64.5895L646.577 64.6005L647.15 63.7812ZM649.431 64.75L649.205 65.724L649.21 65.7251L649.431 64.75ZM655.744 64.5L656.181 65.3993L656.191 65.3944L655.744 64.5ZM657.4 63.0312L656.532 62.5351L656.525 62.547L656.519 62.559L657.4 63.0312ZM658.9 61.25C658.9 60.5322 658.758 59.8515 658.458 59.2248L656.654 60.0877C656.813 60.4194 656.9 60.8011 656.9 61.25H658.9ZM658.465 59.2396C658.151 58.5535 657.64 57.9798 656.99 57.5051L655.81 59.1199C656.244 59.4369 656.503 59.759 656.647 60.0729L658.465 59.2396ZM657.005 57.5163C656.386 57.0459 655.587 56.631 654.643 56.2575L653.907 58.1175C654.754 58.4523 655.372 58.7874 655.795 59.1087L657.005 57.5163ZM654.643 56.2575C653.687 55.8797 652.522 55.5333 651.159 55.2139L650.703 57.1611C652.007 57.4667 653.071 57.787 653.907 58.1175L654.643 56.2575ZM651.161 55.2143C648.901 54.68 646.956 54.0983 645.32 53.4723L644.605 55.3402C646.344 56.0058 648.378 56.6117 650.701 57.1607L651.161 55.2143ZM645.334 53.4778C643.73 52.8363 642.431 52.1179 641.418 51.334L640.194 52.916C641.389 53.8404 642.862 54.6429 644.591 55.3347L645.334 53.4778ZM641.435 51.3471C640.467 50.5657 639.755 49.6482 639.281 48.5909L637.456 49.4091C638.066 50.7684 638.979 51.9343 640.178 52.9029L641.435 51.3471ZM639.281 48.5909C638.809 47.537 638.556 46.2653 638.556 44.75H636.556C636.556 46.4847 636.845 48.0463 637.456 49.4091L639.281 48.5909ZM638.556 44.75C638.556 43.34 638.865 42.063 639.473 40.9015L637.702 39.9735C636.935 41.437 636.556 43.035 636.556 44.75H638.556ZM639.473 40.9015C640.088 39.7281 640.956 38.7157 642.094 37.8625L640.894 36.2625C639.531 37.2843 638.462 38.5219 637.702 39.9735L639.473 40.9015ZM642.094 37.8625C643.239 37.0039 644.61 36.3233 646.223 35.8315L645.64 33.9185C643.836 34.4684 642.249 35.2461 640.894 36.2625L642.094 37.8625ZM646.223 35.8315C647.825 35.343 649.59 35.0938 651.525 35.0938V33.0938C649.418 33.0938 647.454 33.3653 645.64 33.9185L646.223 35.8315ZM651.525 35.0938C654.36 35.0938 656.821 35.536 658.929 36.3948L659.684 34.5427C657.292 33.5681 654.565 33.0938 651.525 33.0938V35.0938ZM658.932 36.396C661.062 37.2557 662.675 38.456 663.82 39.9766L665.418 38.7734C664.021 36.919 662.093 35.5151 659.681 34.5415L658.932 36.396ZM663.824 39.9813C664.945 41.4525 665.525 43.2428 665.525 45.4062H667.525C667.525 42.8614 666.834 40.6308 665.414 38.7687L663.824 39.9813ZM666.525 44.4062H657.525V46.4062H666.525V44.4062ZM658.525 45.4062C658.525 44.3367 658.229 43.3436 657.642 42.4508L655.971 43.5492C656.342 44.1147 656.525 44.7258 656.525 45.4062H658.525ZM657.653 42.4678C657.084 41.5634 656.27 40.8636 655.253 40.3556L654.359 42.1444C655.093 42.5114 655.611 42.9783 655.96 43.5322L657.653 42.4678ZM655.27 40.3642C654.215 39.8113 652.962 39.5625 651.556 39.5625V41.5625C652.734 41.5625 653.648 41.772 654.342 42.1358L655.27 40.3642ZM651.556 39.5625C650.209 39.5625 649.015 39.7745 648.025 40.2573L648.9 42.0552C649.535 41.7463 650.403 41.5625 651.556 41.5625V39.5625ZM648.043 40.2483C647.101 40.6831 646.334 41.2825 645.814 42.077L647.486 43.173C647.758 42.7592 648.199 42.3794 648.882 42.0642L648.043 40.2483ZM645.809 42.0842C645.342 42.8106 645.088 43.6001 645.088 44.4375H647.088C647.088 44.0249 647.208 43.6061 647.491 43.1658L645.809 42.0842ZM645.088 44.4375C645.088 45.1109 645.237 45.7505 645.545 46.339L647.317 45.411C647.167 45.1245 647.088 44.8058 647.088 44.4375H645.088ZM645.563 46.3711C645.901 46.962 646.397 47.4688 647.003 47.9053L648.172 46.2822C647.736 45.9687 647.462 45.663 647.299 45.3789L645.563 46.3711ZM647.04 47.9307C647.658 48.3347 648.424 48.7076 649.318 49.0566L650.045 47.1934C649.231 46.8757 648.6 46.5611 648.135 46.2568L647.04 47.9307ZM649.345 49.0667C650.258 49.3928 651.342 49.714 652.591 50.0317L653.084 48.0933C651.875 47.786 650.855 47.4822 650.018 47.1833L649.345 49.0667ZM652.624 50.0395C654.875 50.5306 656.807 51.1091 658.429 51.7698L659.184 49.9177C657.43 49.2034 655.383 48.5944 653.051 48.0855L652.624 50.0395ZM658.443 51.7753C660.075 52.4123 661.392 53.1646 662.416 54.0182L663.696 52.4818C662.471 51.4604 660.954 50.6086 659.17 49.9122L658.443 51.7753ZM662.423 54.024C663.452 54.8661 664.206 55.8544 664.702 56.993L666.536 56.1945C665.906 54.7497 664.952 53.5089 663.689 52.476L662.423 54.024ZM664.704 56.9985C665.2 58.1191 665.463 59.4455 665.463 61H667.463C667.463 59.2212 667.162 57.6101 666.533 56.189L664.704 56.9985ZM665.463 61C665.463 62.5255 665.149 63.8525 664.545 65.0047L666.317 65.9328C667.089 64.46 667.463 62.8079 667.463 61H665.463ZM664.543 65.0101C663.955 66.1489 663.098 67.1229 661.949 67.9327L663.101 69.5673C664.494 68.5854 665.574 67.3719 666.32 65.9274L664.543 65.0101ZM661.942 67.9372C660.806 68.7514 659.41 69.3934 657.733 69.8472L658.255 71.7778C660.119 71.2733 661.744 70.5403 663.108 69.5628L661.942 67.9372ZM657.74 69.8451C656.087 70.278 654.216 70.5 652.119 70.5V72.5C654.355 72.5 656.4 72.2636 658.247 71.7799L657.74 69.8451ZM652.119 70.5C650.261 70.5 648.434 70.2804 646.637 69.8411L646.163 71.7839C648.116 72.2613 650.102 72.5 652.119 72.5V70.5ZM646.637 69.8411C644.859 69.4065 643.263 68.7383 641.839 67.8415L640.773 69.5335C642.392 70.5534 644.191 71.3019 646.163 71.7839L646.637 69.8411ZM641.848 67.8467C640.453 66.9486 639.343 65.8088 638.506 64.4213L636.794 65.4537C637.791 67.1079 639.118 68.468 640.765 69.5283L641.848 67.8467ZM638.512 64.43C637.723 63.0916 637.306 61.4517 637.306 59.4688H635.306C635.306 61.7358 635.785 63.7418 636.788 65.445L638.512 64.43ZM636.306 60.4688H645.338V58.4688H636.306V60.4688ZM644.338 59.4688C644.338 60.5614 644.496 61.5521 644.85 62.412L646.7 61.6505C646.47 61.0937 646.338 60.3761 646.338 59.4688H644.338ZM644.86 62.4349C645.24 63.2951 645.803 64.0148 646.546 64.5779L647.754 62.9846C647.288 62.631 646.935 62.1841 646.69 61.6276L644.86 62.4349ZM646.577 64.6005C647.325 65.1247 648.209 65.4925 649.205 65.724L649.658 63.776C648.861 63.5908 648.225 63.3128 647.723 62.962L646.577 64.6005ZM649.21 65.7251C650.215 65.9536 651.344 66.0625 652.588 66.0625V64.0625C651.456 64.0625 650.481 63.963 649.653 63.7749L649.21 65.7251ZM652.588 66.0625C653.997 66.0625 655.219 65.8672 656.181 65.3992L655.306 63.6008C654.727 63.8828 653.845 64.0625 652.588 64.0625V66.0625ZM656.191 65.3944C657.106 64.9369 657.843 64.3215 658.281 63.5035L656.519 62.559C656.332 62.9077 655.965 63.2715 655.297 63.6056L656.191 65.3944ZM658.268 63.5274C658.678 62.8103 658.9 62.0471 658.9 61.25H656.9C656.9 61.6612 656.789 62.0856 656.532 62.5351L658.268 63.5274ZM684.019 58.8438H683.019V59.8438H684.019V58.8438ZM684.019 51.8125V50.8125H683.019V51.8125H684.019ZM697.238 51.2188L697.642 52.1334L697.65 52.1295L697.659 52.1255L697.238 51.2188ZM699.206 49.5625L698.355 49.037L698.351 49.0442L699.206 49.5625ZM699.206 44.4375L698.312 44.8847L698.316 44.8936L698.321 44.9023L699.206 44.4375ZM697.238 42.4375L696.735 43.302L696.742 43.3064L696.75 43.3107L697.238 42.4375ZM687.363 41.6562V40.6562H686.363V41.6562H687.363ZM687.363 71V72H688.363V71H687.363ZM678.363 71H677.363V72H678.363V71ZM678.363 34.5938V33.5938H677.363V34.5938H678.363ZM701.863 36.2188L701.425 37.1182L701.429 37.1198L701.863 36.2188ZM707.019 40.6562L706.174 41.1913L706.178 41.198L707.019 40.6562ZM707.8 51.9062L706.895 51.4798L706.893 51.4855L707.8 51.9062ZM704.831 55.625L704.21 54.8417L704.204 54.8466L704.831 55.625ZM700.113 58.0312L700.396 58.9903L700.403 58.9882L700.113 58.0312ZM693.831 57.8438H684.019V59.8438H693.831V57.8438ZM685.019 58.8438V51.8125H683.019V58.8438H685.019ZM684.019 52.8125H693.831V50.8125H684.019V52.8125ZM693.831 52.8125C695.293 52.8125 696.578 52.6034 697.642 52.1334L696.833 50.3041C696.105 50.6258 695.119 50.8125 693.831 50.8125V52.8125ZM697.659 52.1255C698.693 51.6445 699.521 50.9732 700.061 50.0808L698.351 49.0442C698.059 49.5268 697.573 49.9597 696.816 50.312L697.659 52.1255ZM700.057 50.088C700.6 49.2097 700.863 48.223 700.863 47.1562H698.863C698.863 47.8811 698.688 48.4986 698.355 49.037L700.057 50.088ZM700.863 47.1562C700.863 46.0219 700.608 44.9552 700.092 43.9727L698.321 44.9023C698.68 45.5864 698.863 46.3323 698.863 47.1562H700.863ZM700.101 43.9903C699.585 42.9592 698.778 42.1519 697.725 41.5643L696.75 43.3107C697.489 43.7231 697.994 44.2491 698.312 44.8847L700.101 43.9903ZM697.74 41.573C696.65 40.939 695.327 40.6562 693.831 40.6562V42.6562C695.086 42.6562 696.034 42.8943 696.735 43.302L697.74 41.573ZM693.831 40.6562H687.363V42.6562H693.831V40.6562ZM686.363 41.6562V71H688.363V41.6562H686.363ZM687.363 70H678.363V72H687.363V70ZM679.363 71V34.5938H677.363V71H679.363ZM678.363 35.5938H693.831V33.5938H678.363V35.5938ZM693.831 35.5938C696.843 35.5938 699.363 36.116 701.425 37.1182L702.3 35.3193C699.903 34.1549 697.069 33.5938 693.831 33.5938V35.5938ZM701.429 37.1198C703.532 38.1324 705.099 39.4935 706.174 41.1913L707.864 40.1212C706.564 38.069 704.693 36.4718 702.296 35.3177L701.429 37.1198ZM706.178 41.198C707.274 42.898 707.831 44.8525 707.831 47.0938H709.831C709.831 44.5017 709.18 42.1645 707.859 40.1145L706.178 41.198ZM707.831 47.0938C707.831 48.7091 707.515 50.166 706.895 51.4798L708.705 52.3327C709.46 50.7299 709.831 48.9784 709.831 47.0938H707.831ZM706.893 51.4855C706.296 52.7734 705.407 53.8913 704.21 54.8417L705.453 56.4083C706.88 55.2754 707.971 53.9141 708.707 52.327L706.893 51.4855ZM704.204 54.8466C703.027 55.7953 701.574 56.5429 699.822 57.0743L700.403 58.9882C702.36 58.3946 704.052 57.538 705.459 56.4034L704.204 54.8466ZM699.829 57.0722C698.106 57.5813 696.111 57.8438 693.831 57.8438V59.8438C696.26 59.8438 698.452 59.5645 700.396 58.9903L699.829 57.0722ZM752.075 61.0312L751.139 60.6782L751.137 60.686L752.075 61.0312ZM743.231 70.2812L743.598 71.2117L743.603 71.2097L743.231 70.2812ZM729.512 70.2812L729.138 71.2085L729.149 71.2129L729.512 70.2812ZM724.137 66.6875L723.421 67.385L724.137 66.6875ZM720.575 44.5938L719.639 44.2407L719.638 44.2456L720.575 44.5938ZM724.075 38.9375L723.354 38.2448L723.354 38.245L724.075 38.9375ZM729.45 35.3438L729.817 36.2742L729.821 36.2722L729.45 35.3438ZM743.169 35.3438L742.794 36.271L742.805 36.2754L743.169 35.3438ZM748.575 38.9375L747.854 39.6302L747.858 39.635L748.575 38.9375ZM752.075 44.5938L751.136 44.9391L751.141 44.9497L752.075 44.5938ZM743.731 47.375L742.764 47.628L742.766 47.6369L742.769 47.6457L743.731 47.375ZM742.169 43.9688L741.354 44.5483L741.361 44.5586L741.369 44.5687L742.169 43.9688ZM739.669 41.8438L739.214 42.7344L739.225 42.7401L739.237 42.7456L739.669 41.8438ZM732.919 41.8438L733.358 42.742L733.366 42.7382L732.919 41.8438ZM730.45 43.9688L731.259 44.557L731.265 44.5483L730.45 43.9688ZM728.919 47.375L727.951 47.122L727.949 47.1325L728.919 47.375ZM728.919 58.1875L727.948 58.4265L727.949 58.4335L727.951 58.4405L728.919 58.1875ZM730.481 61.6562L729.669 62.2392L729.675 62.2476L730.481 61.6562ZM732.981 63.8125L732.526 64.7031L732.538 64.7089L732.549 64.7143L732.981 63.8125ZM739.731 63.8125L740.171 64.7107L740.178 64.707L740.186 64.7031L739.731 63.8125ZM742.2 61.6562L741.387 61.0733L741.385 61.0767L742.2 61.6562ZM752.325 52.0625V53.5625H754.325V52.0625H752.325ZM752.325 53.5625C752.325 56.2333 751.923 58.6005 751.139 60.6782L753.011 61.3843C753.893 59.0454 754.325 56.4334 754.325 53.5625H752.325ZM751.137 60.686C750.367 62.7761 749.281 64.5403 747.885 65.995L749.328 67.38C750.931 65.7097 752.158 63.7031 753.013 61.3765L751.137 60.686ZM747.885 65.995C746.487 67.4511 744.816 68.5703 742.86 69.3528L743.603 71.2097C745.813 70.3255 747.726 69.0489 749.328 67.38L747.885 65.995ZM742.865 69.3508C740.933 70.1119 738.778 70.5 736.387 70.5V72.5C738.997 72.5 741.405 72.0756 743.598 71.2117L742.865 69.3508ZM736.387 70.5C733.997 70.5 731.83 70.1119 729.876 69.3496L729.149 71.2129C731.361 72.0756 733.778 72.5 736.387 72.5V70.5ZM729.887 69.3541C727.951 68.5717 726.276 67.451 724.854 65.99L723.421 67.385C725.041 69.049 726.949 70.3242 729.138 71.2084L729.887 69.3541ZM724.854 65.99C723.437 64.5339 722.331 62.7686 721.542 60.6782L719.671 61.3843C720.548 63.7106 721.796 65.7161 723.421 67.385L724.854 65.99ZM721.542 60.6782C720.758 58.6005 720.356 56.2333 720.356 53.5625H718.356C718.356 56.4334 718.788 59.0454 719.671 61.3843L721.542 60.6782ZM720.356 53.5625V52.0625H718.356V53.5625H720.356ZM720.356 52.0625C720.356 49.367 720.749 46.9985 721.512 44.9419L719.638 44.2456C718.776 46.564 718.356 49.1747 718.356 52.0625H720.356ZM721.511 44.9468C722.301 42.8535 723.398 41.0866 724.796 39.63L723.354 38.245C721.752 39.9134 720.516 41.9173 719.639 44.2407L721.511 44.9468ZM724.796 39.6302C726.216 38.1518 727.887 37.0344 729.817 36.2742L729.083 34.4133C726.888 35.2781 724.975 36.5566 723.354 38.2448L724.796 39.6302ZM729.821 36.2722C731.774 35.4912 733.938 35.0938 736.325 35.0938V33.0938C733.712 33.0938 731.293 33.5296 729.079 34.4153L729.821 36.2722ZM736.325 35.0938C738.712 35.0938 740.865 35.4913 742.794 36.2709L743.543 34.4166C741.348 33.5295 738.938 33.0938 736.325 33.0938V35.0938ZM742.805 36.2754C744.756 37.0362 746.435 38.1535 747.854 39.6302L749.296 38.2448C747.673 36.5548 745.748 35.2763 743.532 34.4121L742.805 36.2754ZM747.858 39.635C749.274 41.0892 750.369 42.8518 751.137 44.939L753.013 44.2485C752.156 41.919 750.918 39.9108 749.292 38.24L747.858 39.635ZM751.141 44.9497C751.923 47.004 752.325 49.3696 752.325 52.0625H754.325C754.325 49.172 753.894 46.5585 753.009 44.2378L751.141 44.9497ZM745.294 53.5625V52H743.294V53.5625H745.294ZM745.294 52C745.294 50.1813 745.099 48.5453 744.694 47.1043L742.769 47.6457C743.113 48.8714 743.294 50.3187 743.294 52H745.294ZM744.699 47.122C744.319 45.6694 743.749 44.4093 742.969 43.3687L741.369 44.5687C741.963 45.3615 742.435 46.3723 742.764 47.628L744.699 47.122ZM742.984 43.3892C742.223 42.319 741.26 41.4971 740.101 40.9419L739.237 42.7456C740.078 43.1487 740.782 43.7435 741.354 44.5483L742.984 43.3892ZM740.124 40.9531C738.985 40.3719 737.711 40.0938 736.325 40.0938V42.0938C737.439 42.0938 738.394 42.3156 739.214 42.7344L740.124 40.9531ZM736.325 40.0938C734.92 40.0938 733.628 40.3709 732.472 40.9493L733.366 42.7382C734.209 42.3166 735.188 42.0938 736.325 42.0938V40.0938ZM732.479 40.9455C731.342 41.5021 730.393 42.3236 729.635 43.3892L731.265 44.5483C731.841 43.7389 732.537 43.1438 733.358 42.742L732.479 40.9455ZM729.641 43.3806C728.886 44.4187 728.33 45.6746 727.951 47.122L729.886 47.628C730.216 46.3671 730.68 45.3521 731.259 44.5569L729.641 43.3806ZM727.949 47.1325C727.591 48.5632 727.419 50.1893 727.419 52H729.419C729.419 50.3107 729.58 48.8534 729.889 47.6175L727.949 47.1325ZM727.419 52V53.5625H729.419V52H727.419ZM727.419 53.5625C727.419 55.3538 727.591 56.9781 727.948 58.4265L729.89 57.9485C729.58 56.6886 729.419 55.2295 729.419 53.5625H727.419ZM727.951 58.4405C728.331 59.8916 728.898 61.1646 729.669 62.2392L731.294 61.0733C730.69 60.2312 730.215 59.1918 729.886 57.9345L727.951 58.4405ZM729.675 62.2476C730.449 63.3035 731.4 64.1281 732.526 64.7031L733.436 62.9219C732.604 62.4969 731.888 61.884 731.288 61.0649L729.675 62.2476ZM732.549 64.7143C733.702 65.2669 734.989 65.5312 736.387 65.5312V63.5312C735.244 63.5312 734.26 63.3164 733.413 62.9107L732.549 64.7143ZM736.387 65.5312C737.767 65.5312 739.036 65.266 740.171 64.7107L739.292 62.9143C738.468 63.3173 737.508 63.5312 736.387 63.5312V65.5312ZM740.186 64.7031C741.315 64.1265 742.259 63.2982 743.015 62.2358L741.385 61.0767C740.807 61.8893 740.106 62.4985 739.276 62.9219L740.186 64.7031ZM743.013 62.2392C743.783 61.1646 744.35 59.8916 744.73 58.4405L742.795 57.9345C742.466 59.1918 741.992 60.2312 741.387 61.0733L743.013 62.2392ZM744.73 58.4405C745.11 56.9871 745.294 55.3579 745.294 53.5625H743.294C743.294 55.2254 743.123 56.6796 742.795 57.9345L744.73 58.4405ZM797.35 34.5938H798.35V33.5938H797.35V34.5938ZM797.35 71V72H798.35V71H797.35ZM788.319 71L787.469 71.5277L787.763 72H788.319V71ZM773.912 47.8125L774.762 47.2848L772.912 44.3081V47.8125H773.912ZM773.912 71V72H774.912V71H773.912ZM764.912 71H763.912V72H764.912V71ZM764.912 34.5938V33.5938H763.912V34.5938H764.912ZM773.912 34.5938L774.762 34.066L774.468 33.5938H773.912V34.5938ZM788.319 57.7812L787.469 58.309L789.319 61.2857V57.7812H788.319ZM788.319 34.5938V33.5938H787.319V34.5938H788.319ZM796.35 34.5938V71H798.35V34.5938H796.35ZM797.35 70H788.319V72H797.35V70ZM789.168 70.4723L774.762 47.2848L773.063 48.3402L787.469 71.5277L789.168 70.4723ZM772.912 47.8125V71H774.912V47.8125H772.912ZM773.912 70H764.912V72H773.912V70ZM765.912 71V34.5938H763.912V71H765.912ZM764.912 35.5938H773.912V33.5938H764.912V35.5938ZM773.063 35.1215L787.469 58.309L789.168 57.2535L774.762 34.066L773.063 35.1215ZM789.319 57.7812V34.5938H787.319V57.7812H789.319ZM788.319 35.5938H797.35V33.5938H788.319V35.5938ZM829.969 59.6562L829.06 60.0729L829.063 60.0803L829.067 60.0877L829.969 59.6562ZM828.812 58.3125L828.207 59.1087L828.215 59.1143L828.222 59.1199L828.812 58.3125ZM823.344 56.1875L823.114 57.1607L823.116 57.1611L823.344 56.1875ZM817.375 54.4062L817.004 55.3347L817.011 55.3375L817.018 55.3402L817.375 54.4062ZM813.219 52.125L812.59 52.9029L812.599 52.9095L812.607 52.916L813.219 52.125ZM810.781 49L809.869 49.4091L810.781 49ZM831.719 35.4688L831.341 36.3948L831.344 36.396L831.719 35.4688ZM837.031 39.375L836.232 39.9766L836.236 39.9813L837.031 39.375ZM838.938 45.4062V46.4062H839.938V45.4062H838.938ZM829.938 45.4062H828.938V46.4062H829.938V45.4062ZM829.219 43L828.372 43.5322L828.378 43.5407L828.383 43.5492L829.219 43ZM827.219 41.25L826.755 42.1358L826.763 42.1402L826.772 42.1444L827.219 41.25ZM820.875 41.1562L821.294 42.0642L821.304 42.0598L821.313 42.0552L820.875 41.1562ZM819.062 42.625L818.226 42.077L818.221 42.0842L819.062 42.625ZM818.844 45.875L817.958 46.339L817.966 46.3552L817.975 46.3711L818.844 45.875ZM820 47.0938L819.416 47.9053L819.434 47.9184L819.453 47.9307L820 47.0938ZM822.094 48.125L821.73 49.0566L821.744 49.0619L821.757 49.0667L822.094 48.125ZM825.25 49.0625L825.004 50.0317L825.02 50.0359L825.037 50.0395L825.25 49.0625ZM831.219 50.8438L830.841 51.7698L830.848 51.7726L830.855 51.7753L831.219 50.8438ZM835.469 53.25L834.829 54.0183L834.836 54.024L835.469 53.25ZM838.031 56.5938L837.114 56.993L837.117 56.9985L838.031 56.5938ZM837.844 65.4688L836.958 65.0047L836.955 65.0101L837.844 65.4688ZM834.938 68.75L834.361 67.9326L834.355 67.9372L834.938 68.75ZM830.406 70.8125L830.66 71.7799L830.667 71.7778L830.406 70.8125ZM813.719 68.6875L813.177 69.5283L813.186 69.5335L813.719 68.6875ZM810.062 64.9375L809.201 65.4451L809.206 65.4537L810.062 64.9375ZM808.719 59.4688V58.4688H807.719V59.4688H808.719ZM817.75 59.4688H818.75V58.4688H817.75V59.4688ZM818.188 62.0312L817.263 62.412L817.268 62.4235L817.273 62.4349L818.188 62.0312ZM819.562 63.7812L818.958 64.5779L818.973 64.5895L818.989 64.6005L819.562 63.7812ZM821.844 64.75L821.617 65.724L821.622 65.7251L821.844 64.75ZM828.156 64.5L828.594 65.3993L828.603 65.3944L828.156 64.5ZM829.812 63.0312L828.944 62.5351L828.937 62.547L828.931 62.559L829.812 63.0312ZM831.312 61.25C831.312 60.5322 831.171 59.8515 830.871 59.2248L829.067 60.0877C829.225 60.4194 829.312 60.8011 829.312 61.25H831.312ZM830.878 59.2396C830.563 58.5535 830.052 57.9798 829.403 57.5051L828.222 59.1199C828.656 59.4369 828.916 59.759 829.06 60.0729L830.878 59.2396ZM829.418 57.5163C828.799 57.0459 828 56.631 827.055 56.2575L826.32 58.1175C827.167 58.4523 827.785 58.7874 828.207 59.1087L829.418 57.5163ZM827.055 56.2575C826.099 55.8797 824.935 55.5333 823.572 55.2139L823.116 57.1611C824.419 57.4667 825.484 57.787 826.32 58.1175L827.055 56.2575ZM823.574 55.2143C821.313 54.68 819.368 54.0983 817.732 53.4723L817.018 55.3402C818.757 56.0058 820.791 56.6117 823.114 57.1607L823.574 55.2143ZM817.746 53.4778C816.143 52.8363 814.844 52.1179 813.831 51.334L812.607 52.916C813.802 53.8404 815.274 54.6429 817.004 55.3347L817.746 53.4778ZM813.847 51.3471C812.88 50.5657 812.168 49.6482 811.694 48.5909L809.869 49.4091C810.478 50.7684 811.391 51.9343 812.59 52.9029L813.847 51.3471ZM811.694 48.5909C811.221 47.537 810.969 46.2653 810.969 44.75H808.969C808.969 46.4847 809.258 48.0463 809.869 49.4091L811.694 48.5909ZM810.969 44.75C810.969 43.34 811.277 42.063 811.886 40.9015L810.114 39.9735C809.348 41.437 808.969 43.035 808.969 44.75H810.969ZM811.886 40.9015C812.5 39.7281 813.369 38.7157 814.506 37.8625L813.306 36.2625C811.944 37.2843 810.875 38.5219 810.114 39.9735L811.886 40.9015ZM814.506 37.8625C815.651 37.0039 817.022 36.3233 818.635 35.8315L818.052 33.9185C816.248 34.4684 814.661 35.2461 813.306 36.2625L814.506 37.8625ZM818.635 35.8315C820.238 35.343 822.003 35.0938 823.938 35.0938V33.0938C821.831 33.0938 819.866 33.3653 818.052 33.9185L818.635 35.8315ZM823.938 35.0938C826.772 35.0938 829.233 35.536 831.341 36.3948L832.096 34.5427C829.704 33.5681 826.978 33.0938 823.938 33.0938V35.0938ZM831.344 36.396C833.474 37.2557 835.087 38.456 836.232 39.9766L837.83 38.7734C836.434 36.919 834.505 35.5151 832.093 34.5415L831.344 36.396ZM836.236 39.9813C837.358 41.4525 837.938 43.2428 837.938 45.4062H839.938C839.938 42.8614 839.246 40.6308 837.826 38.7687L836.236 39.9813ZM838.938 44.4062H829.938V46.4062H838.938V44.4062ZM830.938 45.4062C830.938 44.3367 830.641 43.3436 830.054 42.4508L828.383 43.5492C828.755 44.1147 828.938 44.7258 828.938 45.4062H830.938ZM830.065 42.4678C829.497 41.5634 828.682 40.8636 827.666 40.3556L826.772 42.1444C827.505 42.5114 828.024 42.9783 828.372 43.5322L830.065 42.4678ZM827.683 40.3642C826.627 39.8113 825.374 39.5625 823.969 39.5625V41.5625C825.147 41.5625 826.06 41.772 826.755 42.1358L827.683 40.3642ZM823.969 39.5625C822.622 39.5625 821.428 39.7745 820.437 40.2573L821.313 42.0552C821.947 41.7463 822.816 41.5625 823.969 41.5625V39.5625ZM820.456 40.2483C819.514 40.6831 818.747 41.2825 818.226 42.077L819.899 43.173C820.17 42.7592 820.611 42.3794 821.294 42.0642L820.456 40.2483ZM818.221 42.0842C817.754 42.8106 817.5 43.6001 817.5 44.4375H819.5C819.5 44.0249 819.621 43.6061 819.904 43.1658L818.221 42.0842ZM817.5 44.4375C817.5 45.1109 817.65 45.7505 817.958 46.339L819.73 45.411C819.58 45.1245 819.5 44.8058 819.5 44.4375H817.5ZM817.975 46.3711C818.313 46.962 818.809 47.4688 819.416 47.9053L820.584 46.2822C820.149 45.9687 819.874 45.663 819.712 45.3789L817.975 46.3711ZM819.453 47.9307C820.071 48.3347 820.836 48.7076 821.73 49.0566L822.457 47.1934C821.643 46.8757 821.013 46.5611 820.547 46.2568L819.453 47.9307ZM821.757 49.0667C822.67 49.3928 823.754 49.714 825.004 50.0317L825.496 48.0933C824.288 47.786 823.267 47.4822 822.43 47.1833L821.757 49.0667ZM825.037 50.0395C827.287 50.5306 829.22 51.1091 830.841 51.7698L831.596 49.9177C829.843 49.2034 827.796 48.5944 825.463 48.0855L825.037 50.0395ZM830.855 51.7753C832.487 52.4123 833.804 53.1646 834.829 54.0182L836.109 52.4818C834.883 51.4604 833.367 50.6086 831.582 49.9122L830.855 51.7753ZM834.836 54.024C835.865 54.8661 836.619 55.8544 837.114 56.993L838.948 56.1945C838.319 54.7497 837.364 53.5089 836.102 52.476L834.836 54.024ZM837.117 56.9985C837.613 58.1191 837.875 59.4455 837.875 61H839.875C839.875 59.2212 839.575 57.6101 838.946 56.189L837.117 56.9985ZM837.875 61C837.875 62.5255 837.561 63.8525 836.958 65.0047L838.73 65.9328C839.501 64.46 839.875 62.8079 839.875 61H837.875ZM836.955 65.0101C836.367 66.1489 835.51 67.1229 834.361 67.9327L835.514 69.5673C836.907 68.5854 837.987 67.3719 838.732 65.9274L836.955 65.0101ZM834.355 67.9372C833.219 68.7514 831.822 69.3934 830.145 69.8472L830.667 71.7778C832.532 71.2733 834.156 70.5403 835.52 69.5628L834.355 67.9372ZM830.153 69.8451C828.5 70.278 826.629 70.5 824.531 70.5V72.5C826.767 72.5 828.812 72.2636 830.66 71.7799L830.153 69.8451ZM824.531 70.5C822.673 70.5 820.847 70.2804 819.05 69.8411L818.575 71.7839C820.528 72.2613 822.514 72.5 824.531 72.5V70.5ZM819.05 69.8411C817.272 69.4065 815.675 68.7383 814.252 67.8415L813.186 69.5335C814.804 70.5534 816.603 71.3019 818.575 71.7839L819.05 69.8411ZM814.26 67.8467C812.865 66.9486 811.755 65.8088 810.919 64.4213L809.206 65.4537C810.203 67.1079 811.531 68.468 813.177 69.5283L814.26 67.8467ZM810.924 64.43C810.136 63.0916 809.719 61.4517 809.719 59.4688H807.719C807.719 61.7358 808.198 63.7418 809.201 65.445L810.924 64.43ZM808.719 60.4688H817.75V58.4688H808.719V60.4688ZM816.75 59.4688C816.75 60.5614 816.909 61.5521 817.263 62.412L819.112 61.6505C818.883 61.0937 818.75 60.3761 818.75 59.4688H816.75ZM817.273 62.4349C817.652 63.2951 818.216 64.0148 818.958 64.5779L820.167 62.9846C819.701 62.631 819.348 62.1841 819.102 61.6276L817.273 62.4349ZM818.989 64.6005C819.738 65.1247 820.622 65.4925 821.617 65.724L822.07 63.776C821.274 63.5908 820.637 63.3128 820.136 62.962L818.989 64.6005ZM821.622 65.7251C822.628 65.9536 823.756 66.0625 825 66.0625V64.0625C823.869 64.0625 822.893 63.963 822.065 63.7749L821.622 65.7251ZM825 66.0625C826.409 66.0625 827.632 65.8672 828.594 65.3992L827.719 63.6008C827.139 63.8828 826.258 64.0625 825 64.0625V66.0625ZM828.603 65.3944C829.519 64.9369 830.256 64.3215 830.694 63.5035L828.931 62.559C828.744 62.9077 828.377 63.2715 827.709 63.6056L828.603 65.3944ZM830.681 63.5274C831.091 62.8103 831.312 62.0471 831.312 61.25H829.312C829.312 61.6612 829.201 62.0856 828.944 62.5351L830.681 63.5274ZM877.525 63.9688H878.525V62.9688H877.525V63.9688ZM877.525 71V72H878.525V71H877.525ZM856.588 71H855.588V72H856.588V71ZM856.588 63.9688V62.9688H855.588V63.9688H856.588ZM859.775 34.5938H860.775V33.5938H859.775V34.5938ZM859.775 71V72H860.775V71H859.775ZM850.775 71H849.775V72H850.775V71ZM850.775 34.5938V33.5938H849.775V34.5938H850.775ZM874.838 48.6562H875.838V47.6562H874.838V48.6562ZM874.838 55.6875V56.6875H875.838V55.6875H874.838ZM856.588 55.6875H855.588V56.6875H856.588V55.6875ZM856.588 48.6562V47.6562H855.588V48.6562H856.588ZM877.556 34.5938H878.556V33.5938H877.556V34.5938ZM877.556 41.6562V42.6562H878.556V41.6562H877.556ZM856.588 41.6562H855.588V42.6562H856.588V41.6562ZM856.588 34.5938V33.5938H855.588V34.5938H856.588ZM876.525 63.9688V71H878.525V63.9688H876.525ZM877.525 70H856.588V72H877.525V70ZM857.588 71V63.9688H855.588V71H857.588ZM856.588 64.9688H877.525V62.9688H856.588V64.9688ZM858.775 34.5938V71H860.775V34.5938H858.775ZM859.775 70H850.775V72H859.775V70ZM851.775 71V34.5938H849.775V71H851.775ZM850.775 35.5938H859.775V33.5938H850.775V35.5938ZM873.838 48.6562V55.6875H875.838V48.6562H873.838ZM874.838 54.6875H856.588V56.6875H874.838V54.6875ZM857.588 55.6875V48.6562H855.588V55.6875H857.588ZM856.588 49.6562H874.838V47.6562H856.588V49.6562ZM876.556 34.5938V41.6562H878.556V34.5938H876.556ZM877.556 40.6562H856.588V42.6562H877.556V40.6562ZM857.588 41.6562V34.5938H855.588V41.6562H857.588ZM856.588 35.5938H877.556V33.5938H856.588V35.5938ZM887.956 34.5938V33.5938H886.956V34.5938H887.956ZM909.269 35.3125L909.013 36.2793L909.024 36.282L909.269 35.3125ZM913.894 37.375L913.309 38.1861L913.315 38.1905L913.894 37.375ZM916.862 40.8125L915.968 41.2597L915.971 41.2652L916.862 40.8125ZM916.831 50.8438L915.937 50.3965L916.831 50.8438ZM913.894 54.3125L913.311 53.4997L913.894 54.3125ZM909.55 56.5625L909.205 55.6238L909.122 55.6542L909.046 55.6987L909.55 56.5625ZM906.55 58.3125V59.3125H906.82L907.054 59.1763L906.55 58.3125ZM893.612 58.3125L892.613 58.3214L892.621 59.3125H893.612V58.3125ZM893.55 51.2812V50.2812H892.541L892.55 51.2901L893.55 51.2812ZM906.362 50.7188L906.773 51.6307L906.782 51.6264L906.792 51.622L906.362 50.7188ZM906.269 42.2188L905.858 43.1307L905.867 43.1344L906.269 42.2188ZM896.987 41.6562V40.6562H895.987V41.6562H896.987ZM896.987 71V72H897.987V71H896.987ZM887.956 71H886.956V72H887.956V71ZM909.55 71L908.671 71.4771L908.955 72H909.55V71ZM900.831 54.9375L900.821 53.9375L899.159 53.9538L899.952 55.4146L900.831 54.9375ZM910.394 54.8438L911.265 54.3536L910.975 53.838L910.384 53.8438L910.394 54.8438ZM919.269 70.625H920.269V70.3631L920.14 70.1348L919.269 70.625ZM919.269 71V72H920.269V71H919.269ZM887.956 35.5938H903.175V33.5938H887.956V35.5938ZM903.175 35.5938C905.355 35.5938 907.299 35.826 909.013 36.2793L909.524 34.3457C907.614 33.8406 905.495 33.5938 903.175 33.5938V35.5938ZM909.024 36.282C910.737 36.7152 912.158 37.3559 913.309 38.186L914.479 36.564C913.088 35.5608 911.426 34.8264 909.514 34.343L909.024 36.282ZM913.315 38.1905C914.477 39.0152 915.356 40.0361 915.968 41.2597L917.757 40.3653C916.994 38.8389 915.894 37.5682 914.472 36.5595L913.315 38.1905ZM915.971 41.2652C916.575 42.456 916.894 43.8687 916.894 45.5312H918.894C918.894 43.6104 918.525 41.8774 917.754 40.3598L915.971 41.2652ZM916.894 45.5312C916.894 47.5516 916.556 49.1578 915.937 50.3965L917.726 51.291C918.523 49.6963 918.894 47.7609 918.894 45.5312H916.894ZM915.937 50.3965C915.299 51.6723 914.425 52.7015 913.311 53.4997L914.476 55.1253C915.862 54.1319 916.947 52.8485 917.726 51.291L915.937 50.3965ZM913.311 53.4997C912.144 54.3363 910.778 55.0464 909.205 55.6238L909.895 57.5012C911.613 56.8703 913.144 56.0804 914.476 55.1253L913.311 53.4997ZM909.046 55.6987L906.046 57.4487L907.054 59.1763L910.054 57.4263L909.046 55.6987ZM906.55 57.3125H893.612V59.3125H906.55V57.3125ZM894.612 58.3036L894.55 51.2724L892.55 51.2901L892.613 58.3214L894.612 58.3036ZM893.55 52.2812H903.237V50.2812H893.55V52.2812ZM903.237 52.2812C904.58 52.2812 905.772 52.0809 906.773 51.6307L905.952 49.8068C905.286 50.1066 904.395 50.2812 903.237 50.2812V52.2812ZM906.792 51.622C907.79 51.1476 908.578 50.4514 909.106 49.5274L907.369 48.5351C907.064 49.0694 906.601 49.4983 905.933 49.8155L906.792 51.622ZM909.106 49.5274C909.624 48.6206 909.862 47.5783 909.862 46.4375H907.862C907.862 47.2967 907.684 47.9835 907.369 48.5351L909.106 49.5274ZM909.862 46.4375C909.862 45.273 909.612 44.2168 909.057 43.3183L907.355 44.3692C907.675 44.8874 907.862 45.5603 907.862 46.4375H909.862ZM909.057 43.3183C908.5 42.4169 907.687 41.7494 906.671 41.3031L905.867 43.1344C906.558 43.4381 907.037 43.8539 907.355 44.3692L909.057 43.3183ZM906.679 41.3068C905.68 40.8574 904.499 40.6562 903.175 40.6562V42.6562C904.309 42.6562 905.19 42.8301 905.858 43.1307L906.679 41.3068ZM903.175 40.6562H896.987V42.6562H903.175V40.6562ZM895.987 41.6562V71H897.987V41.6562H895.987ZM896.987 70H887.956V72H896.987V70ZM888.956 71V34.5938H886.956V71H888.956ZM910.429 70.5229L901.71 54.4604L899.952 55.4146L908.671 71.4771L910.429 70.5229ZM900.841 55.9375L910.404 55.8437L910.384 53.8438L900.821 53.9375L900.841 55.9375ZM909.522 55.3339L918.397 71.1152L920.14 70.1348L911.265 54.3536L909.522 55.3339ZM918.269 70.625V71H920.269V70.625H918.269ZM919.269 70H909.55V72H919.269V70ZM950.231 59.6562L949.322 60.0729L949.326 60.0803L949.329 60.0877L950.231 59.6562ZM949.075 58.3125L948.47 59.1087L948.477 59.1143L948.485 59.1199L949.075 58.3125ZM943.606 56.1875L943.376 57.1607L943.378 57.1611L943.606 56.1875ZM937.638 54.4062L937.266 55.3347L937.273 55.3375L937.28 55.3402L937.638 54.4062ZM933.481 52.125L932.853 52.9029L932.861 52.9095L932.869 52.916L933.481 52.125ZM931.044 49L930.131 49.4091L931.044 49ZM951.981 35.4688L951.604 36.3948L951.607 36.396L951.981 35.4688ZM957.294 39.375L956.495 39.9766L956.499 39.9813L957.294 39.375ZM959.2 45.4062V46.4062H960.2V45.4062H959.2ZM950.2 45.4062H949.2V46.4062H950.2V45.4062ZM949.481 43L948.635 43.5322L948.64 43.5407L948.646 43.5492L949.481 43ZM947.481 41.25L947.017 42.1358L947.026 42.1402L947.034 42.1444L947.481 41.25ZM941.138 41.1562L941.557 42.0642L941.566 42.0598L941.575 42.0552L941.138 41.1562ZM939.325 42.625L938.489 42.077L938.484 42.0842L939.325 42.625ZM939.106 45.875L938.22 46.339L938.229 46.3552L938.238 46.3711L939.106 45.875ZM940.263 47.0938L939.678 47.9053L939.696 47.9184L939.715 47.9307L940.263 47.0938ZM942.356 48.125L941.993 49.0566L942.006 49.0619L942.02 49.0667L942.356 48.125ZM945.513 49.0625L945.266 50.0317L945.283 50.0359L945.299 50.0395L945.513 49.0625ZM951.481 50.8438L951.104 51.7698L951.111 51.7726L951.118 51.7753L951.481 50.8438ZM955.731 53.25L955.091 54.0183L955.098 54.024L955.731 53.25ZM958.294 56.5938L957.377 56.993L957.379 56.9985L958.294 56.5938ZM958.106 65.4688L957.22 65.0047L957.218 65.0101L958.106 65.4688ZM955.2 68.75L954.624 67.9326L954.617 67.9372L955.2 68.75ZM950.669 70.8125L950.922 71.7799L950.93 71.7778L950.669 70.8125ZM933.981 68.6875L933.44 69.5283L933.448 69.5335L933.981 68.6875ZM930.325 64.9375L929.463 65.4451L929.469 65.4537L930.325 64.9375ZM928.981 59.4688V58.4688H927.981V59.4688H928.981ZM938.013 59.4688H939.013V58.4688H938.013V59.4688ZM938.45 62.0312L937.525 62.412L937.53 62.4235L937.535 62.4349L938.45 62.0312ZM939.825 63.7812L939.221 64.5779L939.236 64.5895L939.252 64.6005L939.825 63.7812ZM942.106 64.75L941.88 65.724L941.885 65.7251L942.106 64.75ZM948.419 64.5L948.856 65.3993L948.866 65.3944L948.419 64.5ZM950.075 63.0312L949.207 62.5351L949.2 62.547L949.194 62.559L950.075 63.0312ZM951.575 61.25C951.575 60.5322 951.433 59.8515 951.133 59.2248L949.329 60.0877C949.488 60.4194 949.575 60.8011 949.575 61.25H951.575ZM951.14 59.2396C950.826 58.5535 950.315 57.9798 949.665 57.5051L948.485 59.1199C948.919 59.4369 949.178 59.759 949.322 60.0729L951.14 59.2396ZM949.68 57.5163C949.061 57.0459 948.262 56.631 947.318 56.2575L946.582 58.1175C947.429 58.4523 948.047 58.7874 948.47 59.1087L949.68 57.5163ZM947.318 56.2575C946.362 55.8797 945.197 55.5333 943.834 55.2139L943.378 57.1611C944.682 57.4667 945.746 57.787 946.582 58.1175L947.318 56.2575ZM943.836 55.2143C941.576 54.68 939.631 54.0983 937.995 53.4723L937.28 55.3402C939.019 56.0058 941.053 56.6117 943.376 57.1607L943.836 55.2143ZM938.009 53.4778C936.405 52.8363 935.106 52.1179 934.093 51.334L932.869 52.916C934.064 53.8404 935.537 54.6429 937.266 55.3347L938.009 53.4778ZM934.11 51.3471C933.142 50.5657 932.43 49.6482 931.956 48.5909L930.131 49.4091C930.741 50.7684 931.654 51.9343 932.853 52.9029L934.11 51.3471ZM931.956 48.5909C931.484 47.537 931.231 46.2653 931.231 44.75H929.231C929.231 46.4847 929.52 48.0463 930.131 49.4091L931.956 48.5909ZM931.231 44.75C931.231 43.34 931.54 42.063 932.148 40.9015L930.377 39.9735C929.61 41.437 929.231 43.035 929.231 44.75H931.231ZM932.148 40.9015C932.763 39.7281 933.631 38.7157 934.769 37.8625L933.569 36.2625C932.206 37.2843 931.137 38.5219 930.377 39.9735L932.148 40.9015ZM934.769 37.8625C935.914 37.0039 937.285 36.3233 938.898 35.8315L938.315 33.9185C936.511 34.4684 934.924 35.2461 933.569 36.2625L934.769 37.8625ZM938.898 35.8315C940.5 35.343 942.265 35.0938 944.2 35.0938V33.0938C942.093 33.0938 940.129 33.3653 938.315 33.9185L938.898 35.8315ZM944.2 35.0938C947.035 35.0938 949.496 35.536 951.604 36.3948L952.359 34.5427C949.967 33.5681 947.241 33.0938 944.2 33.0938V35.0938ZM951.607 36.396C953.737 37.2557 955.35 38.456 956.495 39.9766L958.093 38.7734C956.696 36.919 954.768 35.5151 952.356 34.5415L951.607 36.396ZM956.499 39.9813C957.62 41.4525 958.2 43.2428 958.2 45.4062H960.2C960.2 42.8614 959.509 40.6308 958.089 38.7687L956.499 39.9813ZM959.2 44.4062H950.2V46.4062H959.2V44.4062ZM951.2 45.4062C951.2 44.3367 950.904 43.3436 950.317 42.4508L948.646 43.5492C949.017 44.1147 949.2 44.7258 949.2 45.4062H951.2ZM950.328 42.4678C949.759 41.5634 948.945 40.8636 947.928 40.3556L947.034 42.1444C947.768 42.5114 948.286 42.9783 948.635 43.5322L950.328 42.4678ZM947.945 40.3642C946.89 39.8113 945.637 39.5625 944.231 39.5625V41.5625C945.409 41.5625 946.323 41.772 947.017 42.1358L947.945 40.3642ZM944.231 39.5625C942.884 39.5625 941.69 39.7745 940.7 40.2573L941.575 42.0552C942.21 41.7463 943.078 41.5625 944.231 41.5625V39.5625ZM940.718 40.2483C939.776 40.6831 939.009 41.2825 938.489 42.077L940.161 43.173C940.433 42.7592 940.874 42.3794 941.557 42.0642L940.718 40.2483ZM938.484 42.0842C938.017 42.8106 937.763 43.6001 937.763 44.4375H939.763C939.763 44.0249 939.883 43.6061 940.166 43.1658L938.484 42.0842ZM937.763 44.4375C937.763 45.1109 937.912 45.7505 938.22 46.339L939.992 45.411C939.842 45.1245 939.763 44.8058 939.763 44.4375H937.763ZM938.238 46.3711C938.576 46.962 939.072 47.4688 939.678 47.9053L940.847 46.2822C940.411 45.9687 940.137 45.663 939.975 45.3789L938.238 46.3711ZM939.715 47.9307C940.333 48.3347 941.099 48.7076 941.993 49.0566L942.72 47.1934C941.906 46.8757 941.275 46.5611 940.81 46.2568L939.715 47.9307ZM942.02 49.0667C942.933 49.3928 944.017 49.714 945.266 50.0317L945.759 48.0933C944.55 47.786 943.53 47.4822 942.693 47.1833L942.02 49.0667ZM945.299 50.0395C947.55 50.5306 949.482 51.1091 951.104 51.7698L951.859 49.9177C950.105 49.2034 948.058 48.5944 945.726 48.0855L945.299 50.0395ZM951.118 51.7753C952.75 52.4123 954.067 53.1646 955.091 54.0182L956.371 52.4818C955.146 51.4604 953.629 50.6086 951.845 49.9122L951.118 51.7753ZM955.098 54.024C956.127 54.8661 956.881 55.8544 957.377 56.993L959.211 56.1945C958.581 54.7497 957.627 53.5089 956.365 52.476L955.098 54.024ZM957.379 56.9985C957.875 58.1191 958.138 59.4455 958.138 61H960.138C960.138 59.2212 959.837 57.6101 959.208 56.189L957.379 56.9985ZM958.138 61C958.138 62.5255 957.824 63.8525 957.22 65.0047L958.992 65.9328C959.764 64.46 960.138 62.8079 960.138 61H958.138ZM957.218 65.0101C956.63 66.1489 955.773 67.1229 954.624 67.9327L955.776 69.5673C957.169 68.5854 958.249 67.3719 958.995 65.9274L957.218 65.0101ZM954.617 67.9372C953.481 68.7514 952.085 69.3934 950.408 69.8472L950.93 71.7778C952.794 71.2733 954.419 70.5403 955.783 69.5628L954.617 67.9372ZM950.415 69.8451C948.763 70.278 946.891 70.5 944.794 70.5V72.5C947.03 72.5 949.075 72.2636 950.922 71.7799L950.415 69.8451ZM944.794 70.5C942.936 70.5 941.109 70.2804 939.312 69.8411L938.838 71.7839C940.791 72.2613 942.777 72.5 944.794 72.5V70.5ZM939.312 69.8411C937.534 69.4065 935.938 68.7383 934.514 67.8415L933.448 69.5335C935.067 70.5534 936.866 71.3019 938.838 71.7839L939.312 69.8411ZM934.523 67.8467C933.128 66.9486 932.018 65.8088 931.181 64.4213L929.469 65.4537C930.466 67.1079 931.793 68.468 933.44 69.5283L934.523 67.8467ZM931.187 64.43C930.398 63.0916 929.981 61.4517 929.981 59.4688H927.981C927.981 61.7358 928.46 63.7418 929.463 65.445L931.187 64.43ZM928.981 60.4688H938.013V58.4688H928.981V60.4688ZM937.013 59.4688C937.013 60.5614 937.171 61.5521 937.525 62.412L939.375 61.6505C939.145 61.0937 939.013 60.3761 939.013 59.4688H937.013ZM937.535 62.4349C937.915 63.2951 938.478 64.0148 939.221 64.5779L940.429 62.9846C939.963 62.631 939.61 62.1841 939.365 61.6276L937.535 62.4349ZM939.252 64.6005C940 65.1247 940.884 65.4925 941.88 65.724L942.333 63.776C941.536 63.5908 940.9 63.3128 940.398 62.962L939.252 64.6005ZM941.885 65.7251C942.89 65.9536 944.019 66.0625 945.263 66.0625V64.0625C944.131 64.0625 943.156 63.963 942.328 63.7749L941.885 65.7251ZM945.263 66.0625C946.672 66.0625 947.894 65.8672 948.856 65.3992L947.981 63.6008C947.402 63.8828 946.52 64.0625 945.263 64.0625V66.0625ZM948.866 65.3944C949.781 64.9369 950.518 64.3215 950.956 63.5035L949.194 62.559C949.007 62.9077 948.64 63.2715 947.972 63.6056L948.866 65.3944ZM950.943 63.5274C951.353 62.8103 951.575 62.0471 951.575 61.25H949.575C949.575 61.6612 949.464 62.0856 949.207 62.5351L950.943 63.5274Z" fill="#FDC32D"/>
</g>
<g filter="url(#filter1_d_168_66)">
<path d="M353.069 16H-166L-152.069 22.5H339.539L306.631 75H150.807L137.392 83H311.275L353.069 16Z" fill="#D9D9D9"/>
<path d="M353.069 16H-166L-152.069 22.5H339.539L306.631 75H150.807L137.392 83H311.275L353.069 16Z" stroke="#00FFFF"/>
</g>
<g filter="url(#filter2_d_168_66)">
<path d="M1085.93 16H1605L1591.07 22.5H1100.08L1132.37 75H1288.19L1301.61 83H1127.73L1085.93 16Z" fill="#D9D9D9"/>
<path d="M1085.93 16H1605L1591.07 22.5H1100.08L1132.37 75H1288.19L1301.61 83H1127.73L1085.93 16Z" stroke="#00FFFF"/>
</g>
<g filter="url(#filter3_d_168_66)">
<path d="M353 82.5L394.206 17H404.046L363.455 82.5H353Z" fill="white"/>
<path d="M381.29 82.5L419.421 17H429.876L391.131 82.5H381.29Z" fill="white"/>
<path d="M353 82.5L394.206 17H404.046L363.455 82.5H353Z" stroke="#FF037D"/>
<path d="M381.29 82.5L419.421 17H429.876L391.131 82.5H381.29Z" stroke="#FF037D"/>
</g>
<g filter="url(#filter4_d_168_66)">
<path d="M1085.88 82.5L1044.67 17H1034.83L1075.42 82.5H1085.88Z" fill="white"/>
<path d="M1057.59 82.5L1019.46 17H1009L1047.75 82.5H1057.59Z" fill="white"/>
<path d="M1085.88 82.5L1044.67 17H1034.83L1075.42 82.5H1085.88Z" stroke="#FF037D"/>
<path d="M1057.59 82.5L1019.46 17H1009L1047.75 82.5H1057.59Z" stroke="#FF037D"/>
</g>
<defs>
<filter id="filter0_d_168_66" x="477.456" y="27.0938" width="490.744" height="53.4062" filterUnits="userSpaceOnUse" color-interpolation-filters="sRGB">
<feFlood flood-opacity="0" result="BackgroundImageFix"/>
<feColorMatrix in="SourceAlpha" type="matrix" values="0 0 0 0 0 0 0 0 0 0 0 0 0 0 0 0 0 0 127 0" result="hardAlpha"/>
<feOffset dx="1" dy="1"/>
<feGaussianBlur stdDeviation="4"/>
<feComposite in2="hardAlpha" operator="out"/>
<feColorMatrix type="matrix" values="0 0 0 0 0.992157 0 0 0 0 0.764706 0 0 0 0 0.176471 0 0 0 1 0"/>
<feBlend mode="normal" in2="BackgroundImageFix" result="effect1_dropShadow_168_66"/>
<feBlend mode="normal" in="SourceGraphic" in2="effect1_dropShadow_168_66" result="shape"/>
</filter>
<filter id="filter1_d_168_66" x="-181.211" y="0.5" width="552.181" height="100" filterUnits="userSpaceOnUse" color-interpolation-filters="sRGB">
<feFlood flood-opacity="0" result="BackgroundImageFix"/>
<feColorMatrix in="SourceAlpha" type="matrix" values="0 0 0 0 0 0 0 0 0 0 0 0 0 0 0 0 0 0 127 0" result="hardAlpha"/>
<feOffset dx="1" dy="1"/>
<feGaussianBlur stdDeviation="8"/>
<feComposite in2="hardAlpha" operator="out"/>
<feColorMatrix type="matrix" values="0 0 0 0 0 0 0 0 0 1 0 0 0 0 1 0 0 0 1 0"/>
<feBlend mode="normal" in2="BackgroundImageFix" result="effect1_dropShadow_168_66"/>
<feBlend mode="normal" in="SourceGraphic" in2="effect1_dropShadow_168_66" result="shape"/>
</filter>
<filter id="filter2_d_168_66" x="1070.03" y="0.5" width="552.181" height="100" filterUnits="userSpaceOnUse" color-interpolation-filters="sRGB">
<feFlood flood-opacity="0" result="BackgroundImageFix"/>
<feColorMatrix in="SourceAlpha" type="matrix" values="0 0 0 0 0 0 0 0 0 0 0 0 0 0 0 0 0 0 127 0" result="hardAlpha"/>
<feOffset dx="1" dy="1"/>
<feGaussianBlur stdDeviation="8"/>
<feComposite in2="hardAlpha" operator="out"/>
<feColorMatrix type="matrix" values="0 0 0 0 0 0 0 0 0 1 0 0 0 0 1 0 0 0 1 0"/>
<feBlend mode="normal" in2="BackgroundImageFix" result="effect1_dropShadow_168_66"/>
<feBlend mode="normal" in="SourceGraphic" in2="effect1_dropShadow_168_66" result="shape"/>
</filter>
<filter id="filter3_d_168_66" x="337.095" y="1.5" width="110.658" height="98.5" filterUnits="userSpaceOnUse" color-interpolation-filters="sRGB">
<feFlood flood-opacity="0" result="BackgroundImageFix"/>
<feColorMatrix in="SourceAlpha" type="matrix" values="0 0 0 0 0 0 0 0 0 0 0 0 0 0 0 0 0 0 127 0" result="hardAlpha"/>
<feOffset dx="1" dy="1"/>
<feGaussianBlur stdDeviation="8"/>
<feComposite in2="hardAlpha" operator="out"/>
<feColorMatrix type="matrix" values="0 0 0 0 1 0 0 0 0 0.0100001 0 0 0 0 0.491905 0 0 0 1 0"/>
<feBlend mode="normal" in2="BackgroundImageFix" result="effect1_dropShadow_168_66"/>
<feBlend mode="normal" in="SourceGraphic" in2="effect1_dropShadow_168_66" result="shape"/>
</filter>
<filter id="filter4_d_168_66" x="993.123" y="1.5" width="110.658" height="98.5" filterUnits="userSpaceOnUse" color-interpolation-filters="sRGB">
<feFlood flood-opacity="0" result="BackgroundImageFix"/>
<feColorMatrix in="SourceAlpha" type="matrix" values="0 0 0 0 0 0 0 0 0 0 0 0 0 0 0 0 0 0 127 0" result="hardAlpha"/>
<feOffset dx="1" dy="1"/>
<feGaussianBlur stdDeviation="8"/>
<feComposite in2="hardAlpha" operator="out"/>
<feColorMatrix type="matrix" values="0 0 0 0 1 0 0 0 0 0.0100001 0 0 0 0 0.491905 0 0 0 1 0"/>
<feBlend mode="normal" in2="BackgroundImageFix" result="effect1_dropShadow_168_66"/>
<feBlend mode="normal" in="SourceGraphic" in2="effect1_dropShadow_168_66" result="shape"/>
</filter>
</defs>
</svg>
